Courier Primal Bold.ufo
<glyph name="period" format="2">
  <advance width="1228"/>
  <unicode hex="002E"/>
  <outline>
    <contour>
      <point x="406" y="186" type="qcurve" smooth="yes"/>
      <point x="406" y="229"/>
      <point x="439" y="305"/>
      <point x="467.0" y="333.0" type="qcurve" smooth="yes" name="inserted"/>
      <point x="495" y="361"/>
      <point x="571" y="394"/>
      <point x="614" y="394" type="qcurve" smooth="yes"/>
      <point x="657" y="394"/>
      <point x="733" y="361"/>
      <point x="761.0" y="333.0" type="qcurve" smooth="yes" name="inserted"/>
      <point x="789" y="305"/>
      <point x="822" y="229"/>
      <point x="822" y="186" type="qcurve" smooth="yes"/>
      <point x="822" y="143"/>
      <point x="789" y="67"/>
      <point x="761.0" y="39.0" type="qcurve" smooth="yes" name="inserted"/>
      <point x="733" y="11"/>
      <point x="657" y="-22"/>
      <point x="614" y="-22" type="qcurve" smooth="yes"/>
      <point x="571" y="-22"/>
      <point x="495" y="11"/>
      <point x="467.0" y="39.0" type="qcurve" smooth="yes" name="inserted"/>
      <point x="439" y="67"/>
      <point x="406" y="143"/>
    </contour>
  </outline>
</glyph>
<glyph name="five" format="2">
  <advance width="1228"/>
  <unicode hex="0035"/>
  <outline>
    <contour>
      <point x="289" y="282" type="qcurve" smooth="yes"/>
      <point x="357" y="248"/>
      <point x="503" y="205"/>
      <point x="574" y="205" type="qcurve" smooth="yes"/>
      <point x="619" y="205"/>
      <point x="694" y="229"/>
      <point x="721.0" y="252.0" type="qcurve" smooth="yes" name="inserted"/>
      <point x="748" y="275"/>
      <point x="778" y="342"/>
      <point x="778" y="386" type="qcurve" smooth="yes"/>
      <point x="778" y="467"/>
      <point x="688" y="559"/>
      <point x="604" y="559" type="qcurve" smooth="yes"/>
      <point x="553" y="559"/>
      <point x="455" y="539"/>
      <point x="412" y="523" type="qcurve" smooth="yes"/>
      <point x="392" y="515"/>
      <point x="348" y="507"/>
      <point x="330" y="507" type="qcurve" smooth="yes"/>
      <point x="265" y="507"/>
      <point x="213" y="537"/>
      <point x="215" y="572" type="qcurve" smooth="yes"/>
      <point x="248" y="1122" type="line" smooth="yes"/>
      <point x="250" y="1157"/>
      <point x="278" y="1187"/>
      <point x="313" y="1187" type="qcurve" smooth="yes"/>
      <point x="921" y="1187" type="line" smooth="yes"/>
      <point x="938" y="1187"/>
      <point x="962" y="1177"/>
      <point x="969.5" y="1165.0" type="qcurve" smooth="yes" name="inserted"/>
      <point x="977" y="1153"/>
      <point x="984" y="1111"/>
      <point x="984" y="1079" type="qcurve" smooth="yes"/>
      <point x="984" y="1047"/>
      <point x="977" y="1006"/>
      <point x="969.5" y="994.0" type="qcurve" smooth="yes" name="inserted"/>
      <point x="962" y="982"/>
      <point x="938" y="972"/>
      <point x="921" y="972" type="qcurve" smooth="yes"/>
      <point x="479" y="972" type="line"/>
      <point x="465" y="749" type="line"/>
      <point x="512" y="767"/>
      <point x="607" y="786"/>
      <point x="657" y="786" type="qcurve" smooth="yes"/>
      <point x="752" y="786"/>
      <point x="898" y="727"/>
      <point x="947.0" y="673.5" type="qcurve" smooth="yes" name="inserted"/>
      <point x="996" y="620"/>
      <point x="1046" y="473"/>
      <point x="1046" y="386" type="qcurve" smooth="yes"/>
      <point x="1046" y="283"/>
      <point x="979" y="130"/>
      <point x="917.5" y="79.0" type="qcurve" smooth="yes" name="inserted"/>
      <point x="856" y="28"/>
      <point x="682" y="-22"/>
      <point x="574" y="-22" type="qcurve" smooth="yes"/>
      <point x="478" y="-22"/>
      <point x="292" y="25"/>
      <point x="214" y="67" type="qcurve" smooth="yes"/>
      <point x="185" y="83"/>
      <point x="170" y="145"/>
      <point x="193" y="203" type="qcurve" smooth="yes"/>
      <point x="216" y="261"/>
      <point x="266" y="293"/>
    </contour>
  </outline>
</glyph>
<glyph name="equal" format="2">
  <advance width="1228"/>
  <unicode hex="003D"/>
  <outline>
    <contour>
      <point x="995" y="924" type="line" smooth="yes"/>
      <point x="1012" y="924"/>
      <point x="1036" y="915"/>
      <point x="1043.5" y="903.0" type="qcurve" smooth="yes" name="inserted"/>
      <point x="1051" y="891"/>
      <point x="1058" y="847"/>
      <point x="1058" y="811" type="qcurve" smooth="yes"/>
      <point x="1058" y="775"/>
      <point x="1051" y="731"/>
      <point x="1043.5" y="719.0" type="qcurve" smooth="yes" name="inserted"/>
      <point x="1036" y="707"/>
      <point x="1012" y="699"/>
      <point x="995" y="699" type="qcurve" smooth="yes"/>
      <point x="233" y="699" type="line" smooth="yes"/>
      <point x="216" y="699"/>
      <point x="192" y="707"/>
      <point x="184.5" y="719.0" type="qcurve" smooth="yes" name="inserted"/>
      <point x="177" y="731"/>
      <point x="170" y="775"/>
      <point x="170" y="811" type="qcurve" smooth="yes"/>
      <point x="170" y="847"/>
      <point x="177" y="891"/>
      <point x="184.5" y="903.0" type="qcurve" smooth="yes" name="inserted"/>
      <point x="192" y="915"/>
      <point x="216" y="924"/>
      <point x="233" y="924" type="qcurve" smooth="yes"/>
    </contour>
    <contour>
      <point x="995" y="466" type="line" smooth="yes"/>
      <point x="1012" y="466"/>
      <point x="1036" y="457"/>
      <point x="1043.5" y="445.0" type="qcurve" smooth="yes" name="inserted"/>
      <point x="1051" y="433"/>
      <point x="1058" y="389"/>
      <point x="1058" y="353" type="qcurve" smooth="yes"/>
      <point x="1058" y="317"/>
      <point x="1051" y="273"/>
      <point x="1043.5" y="261.0" type="qcurve" smooth="yes" name="inserted"/>
      <point x="1036" y="249"/>
      <point x="1012" y="241"/>
      <point x="995" y="241" type="qcurve" smooth="yes"/>
      <point x="233" y="241" type="line" smooth="yes"/>
      <point x="216" y="241"/>
      <point x="192" y="249"/>
      <point x="184.5" y="261.0" type="qcurve" smooth="yes" name="inserted"/>
      <point x="177" y="273"/>
      <point x="170" y="317"/>
      <point x="170" y="353" type="qcurve" smooth="yes"/>
      <point x="170" y="389"/>
      <point x="177" y="433"/>
      <point x="184.5" y="445.0" type="qcurve" smooth="yes" name="inserted"/>
      <point x="192" y="457"/>
      <point x="216" y="466"/>
      <point x="233" y="466" type="qcurve" smooth="yes"/>
    </contour>
  </outline>
</glyph>
<glyph name="question" format="2">
  <advance width="1228"/>
  <unicode hex="003F"/>
  <outline>
    <contour>
      <point x="685" y="467" type="line" smooth="yes"/>
      <point x="684" y="455"/>
      <point x="674" y="437"/>
      <point x="662.5" y="431.0" type="qcurve" smooth="yes" name="inserted"/>
      <point x="651" y="425"/>
      <point x="613" y="419"/>
      <point x="584" y="419" type="qcurve" smooth="yes"/>
      <point x="555" y="419"/>
      <point x="517" y="425"/>
      <point x="505.5" y="431.0" type="qcurve" smooth="yes" name="inserted"/>
      <point x="494" y="437"/>
      <point x="484" y="455"/>
      <point x="483" y="467" type="qcurve" smooth="yes"/>
      <point x="465" y="675" type="line" smooth="yes"/>
      <point x="463" y="695"/>
      <point x="476" y="723"/>
      <point x="495" y="726" type="qcurve" smooth="yes"/>
      <point x="605" y="744" type="line" smooth="yes"/>
      <point x="679" y="756"/>
      <point x="747" y="815"/>
      <point x="747" y="869" type="qcurve" smooth="yes"/>
      <point x="747" y="929"/>
      <point x="669" y="992"/>
      <point x="591" y="992" type="qcurve" smooth="yes"/>
      <point x="550" y="992"/>
      <point x="473" y="976"/>
      <point x="438" y="962" type="qcurve"/>
      <point x="438" y="860" type="line" smooth="yes"/>
      <point x="438" y="843"/>
      <point x="428" y="819"/>
      <point x="416.0" y="811.5" type="qcurve" smooth="yes" name="inserted"/>
      <point x="404" y="804"/>
      <point x="362" y="797"/>
      <point x="330" y="797" type="qcurve" smooth="yes"/>
      <point x="266" y="797"/>
      <point x="208" y="826"/>
      <point x="208" y="860" type="qcurve" smooth="yes"/>
      <point x="208" y="1060" type="line" smooth="yes"/>
      <point x="208.0" y="1080.5" name="inserted"/>
      <point x="228.5" y="1111.0"/>
      <point x="249" y="1121" type="qcurve" smooth="yes"/>
      <point x="332" y="1160"/>
      <point x="505" y="1209"/>
      <point x="590" y="1209" type="qcurve" smooth="yes"/>
      <point x="690" y="1209"/>
      <point x="844" y="1163"/>
      <point x="896.0" y="1119.5" type="qcurve" smooth="yes" name="inserted"/>
      <point x="948" y="1076"/>
      <point x="1001" y="952"/>
      <point x="1001" y="874" type="qcurve" smooth="yes"/>
      <point x="1001" y="805"/>
      <point x="962" y="703"/>
      <point x="924.0" y="665.0" type="qcurve" smooth="yes" name="inserted"/>
      <point x="886" y="627"/>
      <point x="770" y="573"/>
      <point x="694" y="553" type="qcurve"/>
    </contour>
    <contour>
      <point x="413" y="149" type="qcurve" smooth="yes"/>
      <point x="413" y="185"/>
      <point x="440" y="247"/>
      <point x="463.0" y="270.5" type="qcurve" smooth="yes" name="inserted"/>
      <point x="486" y="294"/>
      <point x="549" y="321"/>
      <point x="584" y="321" type="qcurve" smooth="yes"/>
      <point x="620" y="321"/>
      <point x="682" y="294"/>
      <point x="705.0" y="270.5" type="qcurve" smooth="yes" name="inserted"/>
      <point x="728" y="247"/>
      <point x="755" y="185"/>
      <point x="755" y="149" type="qcurve" smooth="yes"/>
      <point x="755" y="114"/>
      <point x="728" y="51"/>
      <point x="705.0" y="28.0" type="qcurve" smooth="yes" name="inserted"/>
      <point x="682" y="5"/>
      <point x="620" y="-22"/>
      <point x="584" y="-22" type="qcurve" smooth="yes"/>
      <point x="548" y="-22"/>
      <point x="486" y="5"/>
      <point x="463.0" y="28.0" type="qcurve" smooth="yes" name="inserted"/>
      <point x="440" y="51"/>
      <point x="413" y="114"/>
    </contour>
  </outline>
</glyph>
<glyph name="C" format="2">
  <advance width="1228"/>
  <unicode hex="0043"/>
  <outline>
    <contour>
      <point x="1081" y="84" type="qcurve" smooth="yes"/>
      <point x="976" y="32"/>
      <point x="761" y="-22"/>
      <point x="654" y="-22" type="qcurve" smooth="yes"/>
      <point x="530" y="-22"/>
      <point x="327" y="64"/>
      <point x="254.5" y="143.5" type="qcurve" smooth="yes" name="inserted"/>
      <point x="182" y="223"/>
      <point x="103" y="451"/>
      <point x="103" y="594" type="qcurve" smooth="yes"/>
      <point x="103" y="736"/>
      <point x="181" y="964"/>
      <point x="251.0" y="1044.0" type="qcurve" smooth="yes" name="inserted"/>
      <point x="321" y="1124"/>
      <point x="511" y="1209"/>
      <point x="624" y="1209" type="qcurve" smooth="yes"/>
      <point x="718" y="1209"/>
      <point x="845" y="1141"/>
      <point x="884" y="1083" type="qcurve"/>
      <point x="884" y="1146" type="line" smooth="yes"/>
      <point x="884" y="1180"/>
      <point x="942" y="1209"/>
      <point x="1006" y="1209" type="qcurve" smooth="yes"/>
      <point x="1038" y="1209"/>
      <point x="1080" y="1202"/>
      <point x="1092.0" y="1194.5" type="qcurve" smooth="yes" name="inserted"/>
      <point x="1104" y="1187"/>
      <point x="1114" y="1163"/>
      <point x="1114" y="1146" type="qcurve" smooth="yes"/>
      <point x="1114" y="762" type="line" smooth="yes"/>
      <point x="1114" y="728"/>
      <point x="1054" y="699"/>
      <point x="982" y="699" type="qcurve" smooth="yes"/>
      <point x="946" y="699"/>
      <point x="901" y="706"/>
      <point x="887.5" y="713.5" type="qcurve" smooth="yes" name="inserted"/>
      <point x="874" y="721"/>
      <point x="864" y="745"/>
      <point x="864" y="762" type="qcurve" smooth="yes"/>
      <point x="864" y="810"/>
      <point x="837" y="891"/>
      <point x="810.5" y="920.5" type="qcurve" smooth="yes" name="inserted"/>
      <point x="784" y="950"/>
      <point x="706" y="982"/>
      <point x="654" y="982" type="qcurve" smooth="yes"/>
      <point x="513" y="982"/>
      <point x="371" y="781"/>
      <point x="371" y="594" type="qcurve" smooth="yes"/>
      <point x="371" y="407"/>
      <point x="523" y="205"/>
      <point x="664" y="205" type="qcurve" smooth="yes"/>
      <point x="756" y="205"/>
      <point x="918" y="256"/>
      <point x="1005" y="300" type="qcurve" smooth="yes"/>
      <point x="1035" y="315"/>
      <point x="1091" y="285"/>
      <point x="1113" y="225" type="qcurve" smooth="yes"/>
      <point x="1135" y="164"/>
      <point x="1113" y="100"/>
    </contour>
  </outline>
</glyph>
<glyph name="E" format="2">
  <advance width="1228"/>
  <unicode hex="0045"/>
  <outline>
    <contour>
      <point x="220" y="982" type="line"/>
      <point x="123" y="982" type="line" smooth="yes"/>
      <point x="106" y="982"/>
      <point x="82" y="990"/>
      <point x="74.5" y="1001.0" type="qcurve" smooth="yes" name="inserted"/>
      <point x="67" y="1012"/>
      <point x="60" y="1052"/>
      <point x="60" y="1084" type="qcurve" smooth="yes"/>
      <point x="60" y="1116"/>
      <point x="67" y="1156"/>
      <point x="74.5" y="1167.5" type="qcurve" smooth="yes" name="inserted"/>
      <point x="82" y="1179"/>
      <point x="106" y="1187"/>
      <point x="123" y="1187" type="qcurve" smooth="yes"/>
      <point x="1035" y="1187" type="line" smooth="yes"/>
      <point x="1070" y="1187"/>
      <point x="1100" y="1157"/>
      <point x="1100" y="1122" type="qcurve" smooth="yes"/>
      <point x="1100" y="820" type="line" smooth="yes"/>
      <point x="1100" y="786"/>
      <point x="1042" y="757"/>
      <point x="978" y="757" type="qcurve" smooth="yes"/>
      <point x="946" y="757"/>
      <point x="904" y="764"/>
      <point x="892.0" y="771.5" type="qcurve" smooth="yes" name="inserted"/>
      <point x="880" y="779"/>
      <point x="870" y="803"/>
      <point x="870" y="820" type="qcurve" smooth="yes"/>
      <point x="870" y="972" type="line"/>
      <point x="470" y="972" type="line"/>
      <point x="470" y="719" type="line"/>
      <point x="714" y="719" type="line" smooth="yes"/>
      <point x="731" y="719"/>
      <point x="755" y="709"/>
      <point x="762.5" y="697.0" type="qcurve" smooth="yes" name="inserted"/>
      <point x="770" y="685"/>
      <point x="777" y="643"/>
      <point x="777" y="611" type="qcurve" smooth="yes"/>
      <point x="777" y="579"/>
      <point x="770" y="538"/>
      <point x="762.5" y="526.0" type="qcurve" smooth="yes" name="inserted"/>
      <point x="755" y="514"/>
      <point x="731" y="504"/>
      <point x="714" y="504" type="qcurve" smooth="yes"/>
      <point x="470" y="504" type="line"/>
      <point x="470" y="215" type="line"/>
      <point x="880" y="215" type="line"/>
      <point x="880" y="417" type="line" smooth="yes"/>
      <point x="880" y="451"/>
      <point x="938" y="480"/>
      <point x="1006" y="480" type="qcurve" smooth="yes"/>
      <point x="1040" y="480"/>
      <point x="1084" y="473"/>
      <point x="1097.0" y="465.5" type="qcurve" smooth="yes" name="inserted"/>
      <point x="1110" y="458"/>
      <point x="1120" y="434"/>
      <point x="1120" y="417" type="qcurve" smooth="yes"/>
      <point x="1120" y="65" type="line" smooth="yes"/>
      <point x="1120" y="30"/>
      <point x="1090" y="0"/>
      <point x="1055" y="0" type="qcurve" smooth="yes"/>
      <point x="123" y="0" type="line" smooth="yes"/>
      <point x="106" y="0"/>
      <point x="82" y="8"/>
      <point x="74.5" y="19.0" type="qcurve" smooth="yes" name="inserted"/>
      <point x="67" y="30"/>
      <point x="60" y="70"/>
      <point x="60" y="102" type="qcurve" smooth="yes"/>
      <point x="60" y="134"/>
      <point x="67" y="174"/>
      <point x="74.5" y="185.5" type="qcurve" smooth="yes" name="inserted"/>
      <point x="82" y="197"/>
      <point x="106" y="205"/>
      <point x="123" y="205" type="qcurve" smooth="yes"/>
      <point x="220" y="205" type="line"/>
    </contour>
  </outline>
</glyph>
<glyph name="H" format="2">
  <advance width="1228"/>
  <unicode hex="0048"/>
  <outline>
    <contour>
      <point x="170" y="982" type="line"/>
      <point x="113" y="982" type="line" smooth="yes"/>
      <point x="96" y="982"/>
      <point x="72" y="990"/>
      <point x="64.5" y="1001.0" type="qcurve" smooth="yes" name="inserted"/>
      <point x="57" y="1012"/>
      <point x="50" y="1052"/>
      <point x="50" y="1084" type="qcurve" smooth="yes"/>
      <point x="50" y="1116"/>
      <point x="57" y="1156"/>
      <point x="64.5" y="1167.5" type="qcurve" smooth="yes" name="inserted"/>
      <point x="72" y="1179"/>
      <point x="96" y="1187"/>
      <point x="113" y="1187" type="qcurve" smooth="yes"/>
      <point x="487" y="1187" type="line" smooth="yes"/>
      <point x="504" y="1187"/>
      <point x="528" y="1179"/>
      <point x="535.5" y="1167.5" type="qcurve" smooth="yes" name="inserted"/>
      <point x="543" y="1156"/>
      <point x="550" y="1116"/>
      <point x="550" y="1084" type="qcurve" smooth="yes"/>
      <point x="550" y="1052"/>
      <point x="543" y="1012"/>
      <point x="535.5" y="1001.0" type="qcurve" smooth="yes" name="inserted"/>
      <point x="528" y="990"/>
      <point x="504" y="982"/>
      <point x="487" y="982" type="qcurve" smooth="yes"/>
      <point x="420" y="982" type="line"/>
      <point x="420" y="719" type="line"/>
      <point x="808" y="719" type="line"/>
      <point x="808" y="982" type="line"/>
      <point x="741" y="982" type="line" smooth="yes"/>
      <point x="724" y="982"/>
      <point x="700" y="990"/>
      <point x="692.5" y="1001.0" type="qcurve" smooth="yes" name="inserted"/>
      <point x="685" y="1012"/>
      <point x="678" y="1052"/>
      <point x="678" y="1084" type="qcurve" smooth="yes"/>
      <point x="678" y="1116"/>
      <point x="685" y="1156"/>
      <point x="692.5" y="1167.5" type="qcurve" smooth="yes" name="inserted"/>
      <point x="700" y="1179"/>
      <point x="724" y="1187"/>
      <point x="741" y="1187" type="qcurve" smooth="yes"/>
      <point x="1115" y="1187" type="line" smooth="yes"/>
      <point x="1132" y="1187"/>
      <point x="1156" y="1179"/>
      <point x="1163.5" y="1167.5" type="qcurve" smooth="yes" name="inserted"/>
      <point x="1171" y="1156"/>
      <point x="1178" y="1116"/>
      <point x="1178" y="1084" type="qcurve" smooth="yes"/>
      <point x="1178" y="1052"/>
      <point x="1171" y="1012"/>
      <point x="1163.5" y="1001.0" type="qcurve" smooth="yes" name="inserted"/>
      <point x="1156" y="990"/>
      <point x="1132" y="982"/>
      <point x="1115" y="982" type="qcurve" smooth="yes"/>
      <point x="1058" y="982" type="line"/>
      <point x="1058" y="205" type="line"/>
      <point x="1115" y="205" type="line" smooth="yes"/>
      <point x="1132" y="205"/>
      <point x="1156" y="197"/>
      <point x="1163.5" y="185.5" type="qcurve" smooth="yes" name="inserted"/>
      <point x="1171" y="174"/>
      <point x="1178" y="134"/>
      <point x="1178" y="102" type="qcurve" smooth="yes"/>
      <point x="1178" y="70"/>
      <point x="1171" y="30"/>
      <point x="1163.5" y="19.0" type="qcurve" smooth="yes" name="inserted"/>
      <point x="1156" y="8"/>
      <point x="1132" y="0"/>
      <point x="1115" y="0" type="qcurve" smooth="yes"/>
      <point x="741" y="0" type="line" smooth="yes"/>
      <point x="724" y="0"/>
      <point x="700" y="8"/>
      <point x="692.5" y="19.0" type="qcurve" smooth="yes" name="inserted"/>
      <point x="685" y="30"/>
      <point x="678" y="70"/>
      <point x="678" y="102" type="qcurve" smooth="yes"/>
      <point x="678" y="134"/>
      <point x="685" y="174"/>
      <point x="692.5" y="185.5" type="qcurve" smooth="yes" name="inserted"/>
      <point x="700" y="197"/>
      <point x="724" y="205"/>
      <point x="741" y="205" type="qcurve" smooth="yes"/>
      <point x="808" y="205" type="line"/>
      <point x="808" y="504" type="line"/>
      <point x="420" y="504" type="line"/>
      <point x="420" y="205" type="line"/>
      <point x="487" y="205" type="line" smooth="yes"/>
      <point x="504" y="205"/>
      <point x="528" y="197"/>
      <point x="535.5" y="185.5" type="qcurve" smooth="yes" name="inserted"/>
      <point x="543" y="174"/>
      <point x="550" y="134"/>
      <point x="550" y="102" type="qcurve" smooth="yes"/>
      <point x="550" y="70"/>
      <point x="543" y="30"/>
      <point x="535.5" y="19.0" type="qcurve" smooth="yes" name="inserted"/>
      <point x="528" y="8"/>
      <point x="504" y="0"/>
      <point x="487" y="0" type="qcurve" smooth="yes"/>
      <point x="113" y="0" type="line" smooth="yes"/>
      <point x="96" y="0"/>
      <point x="72" y="8"/>
      <point x="64.5" y="19.0" type="qcurve" smooth="yes" name="inserted"/>
      <point x="57" y="30"/>
      <point x="50" y="70"/>
      <point x="50" y="102" type="qcurve" smooth="yes"/>
      <point x="50" y="134"/>
      <point x="57" y="174"/>
      <point x="64.5" y="185.5" type="qcurve" smooth="yes" name="inserted"/>
      <point x="72" y="197"/>
      <point x="96" y="205"/>
      <point x="113" y="205" type="qcurve" smooth="yes"/>
      <point x="170" y="205" type="line"/>
    </contour>
  </outline>
</glyph>
<glyph name="Q" format="2">
  <advance width="1228"/>
  <unicode hex="0051"/>
  <outline>
    <contour>
      <point x="614" y="982" type="qcurve" smooth="yes"/>
      <point x="544" y="982"/>
      <point x="438" y="935"/>
      <point x="402.5" y="890.0" type="qcurve" smooth="yes" name="inserted"/>
      <point x="367" y="845"/>
      <point x="331" y="716"/>
      <point x="331" y="634" type="qcurve" smooth="yes"/>
      <point x="331" y="552"/>
      <point x="367" y="423"/>
      <point x="402.5" y="378.0" type="qcurve" smooth="yes" name="inserted"/>
      <point x="438" y="333"/>
      <point x="544" y="285"/>
      <point x="614" y="285" type="qcurve" smooth="yes"/>
      <point x="684" y="285"/>
      <point x="790" y="333"/>
      <point x="825.5" y="378.0" type="qcurve" smooth="yes" name="inserted"/>
      <point x="861" y="423"/>
      <point x="897" y="552"/>
      <point x="897" y="634" type="qcurve" smooth="yes"/>
      <point x="897" y="716"/>
      <point x="861" y="845"/>
      <point x="825.5" y="890.0" type="qcurve" smooth="yes" name="inserted"/>
      <point x="790" y="935"/>
      <point x="684" y="982"/>
    </contour>
    <contour>
      <point x="390" y="98" type="line"/>
      <point x="314" y="128"/>
      <point x="193" y="229"/>
      <point x="150.5" y="297.5" type="qcurve" smooth="yes" name="inserted"/>
      <point x="108" y="366"/>
      <point x="63" y="535"/>
      <point x="63" y="634" type="qcurve" smooth="yes"/>
      <point x="63" y="765"/>
      <point x="142" y="978"/>
      <point x="214.5" y="1053.0" type="qcurve" smooth="yes" name="inserted"/>
      <point x="287" y="1128"/>
      <point x="490" y="1209"/>
      <point x="614" y="1209" type="qcurve" smooth="yes"/>
      <point x="738" y="1209"/>
      <point x="941" y="1128"/>
      <point x="1013.5" y="1053.0" type="qcurve" smooth="yes" name="inserted"/>
      <point x="1086" y="978"/>
      <point x="1165" y="765"/>
      <point x="1165" y="634" type="qcurve" smooth="yes"/>
      <point x="1165" y="503"/>
      <point x="1086" y="290"/>
      <point x="1013.5" y="215.0" type="qcurve" smooth="yes" name="inserted"/>
      <point x="941" y="140"/>
      <point x="738" y="58"/>
      <point x="614" y="58" type="qcurve" smooth="yes"/>
      <point x="601" y="58"/>
      <point x="577" y="59"/>
      <point x="569" y="60" type="qcurve"/>
      <point x="463" y="-46" type="line"/>
      <point x="508" y="-29"/>
      <point x="584" y="-17"/>
      <point x="619" y="-17" type="qcurve" smooth="yes"/>
      <point x="653" y="-17"/>
      <point x="716" y="-26"/>
      <point x="745.5" y="-31.5" type="qcurve" smooth="yes" name="inserted"/>
      <point x="775" y="-37"/>
      <point x="833" y="-46"/>
      <point x="863" y="-46" type="qcurve" smooth="yes"/>
      <point x="898" y="-46"/>
      <point x="972" y="-29"/>
      <point x="1016" y="-6" type="qcurve" smooth="yes"/>
      <point x="1045" y="9"/>
      <point x="1102" y="-28"/>
      <point x="1121" y="-67" type="qcurve" smooth="yes"/>
      <point x="1141" y="-109"/>
      <point x="1137" y="-180"/>
      <point x="1105" y="-204" type="qcurve" smooth="yes"/>
      <point x="1045" y="-249"/>
      <point x="936" y="-281"/>
      <point x="882" y="-281" type="qcurve" smooth="yes"/>
      <point x="840" y="-281"/>
      <point x="756" y="-267"/>
      <point x="712.5" y="-259.0" type="qcurve" smooth="yes" name="inserted"/>
      <point x="669" y="-251"/>
      <point x="576" y="-237"/>
      <point x="526" y="-237" type="qcurve" smooth="yes"/>
      <point x="477" y="-237"/>
      <point x="361" y="-257"/>
      <point x="297" y="-284" type="qcurve" smooth="yes"/>
      <point x="282" y="-290"/>
      <point x="250" y="-276"/>
      <point x="235.0" y="-260.5" type="qcurve" smooth="yes" name="inserted"/>
      <point x="220" y="-245"/>
      <point x="195" y="-202"/>
      <point x="189.5" y="-180.0" type="qcurve" smooth="yes" name="inserted"/>
      <point x="184" y="-158"/>
      <point x="188" y="-116"/>
      <point x="202" y="-102" type="qcurve" smooth="yes"/>
    </contour>
  </outline>
</glyph>
<glyph name="R" format="2">
  <advance width="1228"/>
  <unicode hex="0052"/>
  <outline>
    <contour>
      <point x="230" y="982" type="line"/>
      <point x="123" y="982" type="line" smooth="yes"/>
      <point x="106" y="982"/>
      <point x="82" y="990"/>
      <point x="74.5" y="1001.0" type="qcurve" smooth="yes" name="inserted"/>
      <point x="67" y="1012"/>
      <point x="60" y="1052"/>
      <point x="60" y="1084" type="qcurve" smooth="yes"/>
      <point x="60" y="1116"/>
      <point x="67" y="1156"/>
      <point x="74.5" y="1167.5" type="qcurve" smooth="yes" name="inserted"/>
      <point x="82" y="1179"/>
      <point x="106" y="1187"/>
      <point x="123" y="1187" type="qcurve" smooth="yes"/>
      <point x="650" y="1187" type="line" smooth="yes"/>
      <point x="861" y="1187"/>
      <point x="1087" y="1003"/>
      <point x="1087" y="824" type="qcurve" smooth="yes"/>
      <point x="1087" y="704"/>
      <point x="965" y="562"/>
      <point x="849" y="533" type="qcurve"/>
      <point x="872" y="522"/>
      <point x="911" y="493"/>
      <point x="928" y="476" type="qcurve" smooth="yes"/>
      <point x="950" y="453"/>
      <point x="986" y="399"/>
      <point x="1001.0" y="372.0" type="qcurve" smooth="yes" name="inserted"/>
      <point x="1016" y="345"/>
      <point x="1043" y="293"/>
      <point x="1057" y="271" type="qcurve" smooth="yes"/>
      <point x="1076" y="242"/>
      <point x="1118" y="205"/>
      <point x="1146" y="205" type="qcurve" smooth="yes"/>
      <point x="1165" y="205" type="line" smooth="yes"/>
      <point x="1182" y="205"/>
      <point x="1206" y="197"/>
      <point x="1213.5" y="185.5" type="qcurve" smooth="yes" name="inserted"/>
      <point x="1221" y="174"/>
      <point x="1228" y="134"/>
      <point x="1228" y="102" type="qcurve" smooth="yes"/>
      <point x="1228" y="70"/>
      <point x="1221" y="30"/>
      <point x="1213.5" y="19.0" type="qcurve" smooth="yes" name="inserted"/>
      <point x="1206" y="8"/>
      <point x="1182" y="0"/>
      <point x="1165" y="0" type="qcurve" smooth="yes"/>
      <point x="1058" y="0" type="line" smooth="yes"/>
      <point x="992" y="0"/>
      <point x="895" y="67"/>
      <point x="851" y="139" type="qcurve" smooth="yes"/>
      <point x="819" y="192"/>
      <point x="766" y="310"/>
      <point x="728" y="364" type="qcurve" smooth="yes"/>
      <point x="710" y="390"/>
      <point x="669" y="427"/>
      <point x="644.5" y="438.5" type="qcurve" smooth="yes" name="inserted"/>
      <point x="620" y="450"/>
      <point x="558" y="461"/>
      <point x="518" y="461" type="qcurve" smooth="yes"/>
      <point x="480" y="461" type="line"/>
      <point x="480" y="205" type="line"/>
      <point x="597" y="205" type="line" smooth="yes"/>
      <point x="614" y="205"/>
      <point x="638" y="197"/>
      <point x="645.5" y="185.5" type="qcurve" smooth="yes" name="inserted"/>
      <point x="653" y="174"/>
      <point x="660" y="134"/>
      <point x="660" y="102" type="qcurve" smooth="yes"/>
      <point x="660" y="70"/>
      <point x="653" y="30"/>
      <point x="645.5" y="19.0" type="qcurve" smooth="yes" name="inserted"/>
      <point x="638" y="8"/>
      <point x="614" y="0"/>
      <point x="597" y="0" type="qcurve" smooth="yes"/>
      <point x="123" y="0" type="line" smooth="yes"/>
      <point x="106" y="0"/>
      <point x="82" y="8"/>
      <point x="74.5" y="19.0" type="qcurve" smooth="yes" name="inserted"/>
      <point x="67" y="30"/>
      <point x="60" y="70"/>
      <point x="60" y="102" type="qcurve" smooth="yes"/>
      <point x="60" y="134"/>
      <point x="67" y="174"/>
      <point x="74.5" y="185.5" type="qcurve" smooth="yes" name="inserted"/>
      <point x="82" y="197"/>
      <point x="106" y="205"/>
      <point x="123" y="205" type="qcurve" smooth="yes"/>
      <point x="230" y="205" type="line"/>
    </contour>
    <contour>
      <point x="629" y="676" type="line" smooth="yes"/>
      <point x="732" y="676"/>
      <point x="829" y="749"/>
      <point x="829" y="824" type="qcurve" smooth="yes"/>
      <point x="829" y="899"/>
      <point x="732" y="972"/>
      <point x="629" y="972" type="qcurve" smooth="yes"/>
      <point x="480" y="972" type="line"/>
      <point x="480" y="676" type="line"/>
    </contour>
  </outline>
</glyph>
<glyph name="U" format="2">
  <advance width="1228"/>
  <unicode hex="0055"/>
  <outline>
    <contour>
      <point x="113" y="982" type="line" smooth="yes"/>
      <point x="96" y="982"/>
      <point x="72" y="990"/>
      <point x="64.5" y="1001.0" type="qcurve" smooth="yes" name="inserted"/>
      <point x="57" y="1012"/>
      <point x="50" y="1052"/>
      <point x="50" y="1084" type="qcurve" smooth="yes"/>
      <point x="50" y="1116"/>
      <point x="57" y="1156"/>
      <point x="64.5" y="1167.5" type="qcurve" smooth="yes" name="inserted"/>
      <point x="72" y="1179"/>
      <point x="96" y="1187"/>
      <point x="113" y="1187" type="qcurve" smooth="yes"/>
      <point x="487" y="1187" type="line" smooth="yes"/>
      <point x="504" y="1187"/>
      <point x="528" y="1179"/>
      <point x="535.5" y="1167.5" type="qcurve" smooth="yes" name="inserted"/>
      <point x="543" y="1156"/>
      <point x="550" y="1116"/>
      <point x="550" y="1084" type="qcurve" smooth="yes"/>
      <point x="550" y="1052"/>
      <point x="543" y="1012"/>
      <point x="535.5" y="1001.0" type="qcurve" smooth="yes" name="inserted"/>
      <point x="528" y="990"/>
      <point x="504" y="982"/>
      <point x="487" y="982" type="qcurve" smooth="yes"/>
      <point x="410" y="982" type="line"/>
      <point x="410" y="433" type="line" smooth="yes"/>
      <point x="410" y="373"/>
      <point x="440" y="287"/>
      <point x="467.0" y="259.0" type="qcurve" smooth="yes" name="inserted"/>
      <point x="494" y="231"/>
      <point x="569" y="205"/>
      <point x="614" y="205" type="qcurve" smooth="yes"/>
      <point x="659" y="205"/>
      <point x="734" y="231"/>
      <point x="761.0" y="259.0" type="qcurve" smooth="yes" name="inserted"/>
      <point x="788" y="287"/>
      <point x="818" y="373"/>
      <point x="818" y="433" type="qcurve" smooth="yes"/>
      <point x="818" y="982" type="line"/>
      <point x="741" y="982" type="line" smooth="yes"/>
      <point x="724" y="982"/>
      <point x="700" y="990"/>
      <point x="692.5" y="1001.0" type="qcurve" smooth="yes" name="inserted"/>
      <point x="685" y="1012"/>
      <point x="678" y="1052"/>
      <point x="678" y="1084" type="qcurve" smooth="yes"/>
      <point x="678" y="1116"/>
      <point x="685" y="1156"/>
      <point x="692.5" y="1167.5" type="qcurve" smooth="yes" name="inserted"/>
      <point x="700" y="1179"/>
      <point x="724" y="1187"/>
      <point x="741" y="1187" type="qcurve" smooth="yes"/>
      <point x="1115" y="1187" type="line" smooth="yes"/>
      <point x="1132" y="1187"/>
      <point x="1156" y="1179"/>
      <point x="1163.5" y="1167.5" type="qcurve" smooth="yes" name="inserted"/>
      <point x="1171" y="1156"/>
      <point x="1178" y="1116"/>
      <point x="1178" y="1084" type="qcurve" smooth="yes"/>
      <point x="1178" y="1052"/>
      <point x="1171" y="1012"/>
      <point x="1163.5" y="1001.0" type="qcurve" smooth="yes" name="inserted"/>
      <point x="1156" y="990"/>
      <point x="1132" y="982"/>
      <point x="1115" y="982" type="qcurve" smooth="yes"/>
      <point x="1068" y="982" type="line"/>
      <point x="1068" y="413" type="line" smooth="yes"/>
      <point x="1068" y="308"/>
      <point x="1005" y="146"/>
      <point x="946.0" y="90.5" type="qcurve" smooth="yes" name="inserted"/>
      <point x="887" y="35"/>
      <point x="719" y="-22"/>
      <point x="614" y="-22" type="qcurve" smooth="yes"/>
      <point x="509" y="-22"/>
      <point x="341" y="35"/>
      <point x="282.0" y="90.5" type="qcurve" smooth="yes" name="inserted"/>
      <point x="223" y="146"/>
      <point x="160" y="308"/>
      <point x="160" y="413" type="qcurve" smooth="yes"/>
      <point x="160" y="982" type="line"/>
    </contour>
  </outline>
</glyph>
<glyph name="X" format="2">
  <advance width="1228"/>
  <unicode hex="0058"/>
  <outline>
    <contour>
      <point x="446" y="615" type="line"/>
      <point x="183" y="982" type="line"/>
      <point x="123" y="982" type="line" smooth="yes"/>
      <point x="106" y="982"/>
      <point x="82" y="990"/>
      <point x="74.5" y="1001.0" type="qcurve" smooth="yes" name="inserted"/>
      <point x="67" y="1012"/>
      <point x="60" y="1052"/>
      <point x="60" y="1084" type="qcurve" smooth="yes"/>
      <point x="60" y="1116"/>
      <point x="67" y="1156"/>
      <point x="74.5" y="1167.5" type="qcurve" smooth="yes" name="inserted"/>
      <point x="82" y="1179"/>
      <point x="106" y="1187"/>
      <point x="123" y="1187" type="qcurve" smooth="yes"/>
      <point x="517" y="1187" type="line" smooth="yes"/>
      <point x="534" y="1187"/>
      <point x="558" y="1179"/>
      <point x="565.5" y="1167.5" type="qcurve" smooth="yes" name="inserted"/>
      <point x="573" y="1156"/>
      <point x="580" y="1116"/>
      <point x="580" y="1084" type="qcurve" smooth="yes"/>
      <point x="580" y="1052"/>
      <point x="573" y="1012"/>
      <point x="565.5" y="1001.0" type="qcurve" smooth="yes" name="inserted"/>
      <point x="558" y="990"/>
      <point x="534" y="982"/>
      <point x="517" y="982" type="qcurve" smooth="yes"/>
      <point x="474" y="982" type="line"/>
      <point x="620" y="773" type="line"/>
      <point x="765" y="982" type="line"/>
      <point x="741" y="982" type="line" smooth="yes"/>
      <point x="724" y="982"/>
      <point x="700" y="990"/>
      <point x="692.5" y="1001.0" type="qcurve" smooth="yes" name="inserted"/>
      <point x="685" y="1012"/>
      <point x="678" y="1052"/>
      <point x="678" y="1084" type="qcurve" smooth="yes"/>
      <point x="678" y="1116"/>
      <point x="685" y="1156"/>
      <point x="692.5" y="1167.5" type="qcurve" smooth="yes" name="inserted"/>
      <point x="700" y="1179"/>
      <point x="724" y="1187"/>
      <point x="741" y="1187" type="qcurve" smooth="yes"/>
      <point x="1105" y="1187" type="line" smooth="yes"/>
      <point x="1122" y="1187"/>
      <point x="1146" y="1179"/>
      <point x="1153.5" y="1167.5" type="qcurve" smooth="yes" name="inserted"/>
      <point x="1161" y="1156"/>
      <point x="1168" y="1116"/>
      <point x="1168" y="1084" type="qcurve" smooth="yes"/>
      <point x="1168" y="1052"/>
      <point x="1161" y="1012"/>
      <point x="1153.5" y="1001.0" type="qcurve" smooth="yes" name="inserted"/>
      <point x="1146" y="990"/>
      <point x="1122" y="982"/>
      <point x="1105" y="982" type="qcurve" smooth="yes"/>
      <point x="1049" y="982" type="line"/>
      <point x="783" y="604" type="line"/>
      <point x="1074" y="205" type="line"/>
      <point x="1135" y="205" type="line" smooth="yes"/>
      <point x="1152" y="205"/>
      <point x="1176" y="197"/>
      <point x="1183.5" y="185.5" type="qcurve" smooth="yes" name="inserted"/>
      <point x="1191" y="174"/>
      <point x="1198" y="134"/>
      <point x="1198" y="102" type="qcurve" smooth="yes"/>
      <point x="1198" y="70"/>
      <point x="1191" y="30"/>
      <point x="1183.5" y="19.0" type="qcurve" smooth="yes" name="inserted"/>
      <point x="1176" y="8"/>
      <point x="1152" y="0"/>
      <point x="1135" y="0" type="qcurve" smooth="yes"/>
      <point x="731" y="0" type="line" smooth="yes"/>
      <point x="714" y="0"/>
      <point x="690" y="8"/>
      <point x="682.5" y="19.0" type="qcurve" smooth="yes" name="inserted"/>
      <point x="675" y="30"/>
      <point x="668" y="70"/>
      <point x="668" y="102" type="qcurve" smooth="yes"/>
      <point x="668" y="134"/>
      <point x="675" y="174"/>
      <point x="682.5" y="185.5" type="qcurve" smooth="yes" name="inserted"/>
      <point x="690" y="197"/>
      <point x="714" y="205"/>
      <point x="731" y="205" type="qcurve" smooth="yes"/>
      <point x="783" y="205" type="line"/>
      <point x="610" y="449" type="line"/>
      <point x="439" y="205" type="line"/>
      <point x="477" y="205" type="line" smooth="yes"/>
      <point x="494" y="205"/>
      <point x="518" y="197"/>
      <point x="525.5" y="185.5" type="qcurve" smooth="yes" name="inserted"/>
      <point x="533" y="174"/>
      <point x="540" y="134"/>
      <point x="540" y="102" type="qcurve" smooth="yes"/>
      <point x="540" y="70"/>
      <point x="533" y="30"/>
      <point x="525.5" y="19.0" type="qcurve" smooth="yes" name="inserted"/>
      <point x="518" y="8"/>
      <point x="494" y="0"/>
      <point x="477" y="0" type="qcurve" smooth="yes"/>
      <point x="93" y="0" type="line" smooth="yes"/>
      <point x="76" y="0"/>
      <point x="52" y="8"/>
      <point x="44.5" y="19.0" type="qcurve" smooth="yes" name="inserted"/>
      <point x="37" y="30"/>
      <point x="30" y="70"/>
      <point x="30" y="102" type="qcurve" smooth="yes"/>
      <point x="30" y="134"/>
      <point x="37" y="174"/>
      <point x="44.5" y="185.5" type="qcurve" smooth="yes" name="inserted"/>
      <point x="52" y="197"/>
      <point x="76" y="205"/>
      <point x="93" y="205" type="qcurve" smooth="yes"/>
      <point x="155" y="205" type="line"/>
    </contour>
  </outline>
</glyph>
<glyph name="bracketright" format="2">
  <advance width="1228"/>
  <unicode hex="005D"/>
  <outline>
    <contour>
      <point x="688" y="1107" type="line"/>
      <point x="365" y="1107" type="line" smooth="yes"/>
      <point x="348" y="1107"/>
      <point x="324" y="1115"/>
      <point x="316.5" y="1126.0" type="qcurve" smooth="yes" name="inserted"/>
      <point x="309" y="1137"/>
      <point x="302" y="1177"/>
      <point x="302" y="1209" type="qcurve" smooth="yes"/>
      <point x="302" y="1241"/>
      <point x="309" y="1281"/>
      <point x="316.5" y="1292.5" type="qcurve" smooth="yes" name="inserted"/>
      <point x="324" y="1304"/>
      <point x="348" y="1312"/>
      <point x="365" y="1312" type="qcurve" smooth="yes"/>
      <point x="875" y="1312" type="line" smooth="yes"/>
      <point x="909" y="1312"/>
      <point x="938" y="1283"/>
      <point x="938" y="1249" type="qcurve" smooth="yes"/>
      <point x="938" y="-330" type="line" smooth="yes"/>
      <point x="938" y="-364"/>
      <point x="909" y="-393"/>
      <point x="875" y="-393" type="qcurve" smooth="yes"/>
      <point x="365" y="-393" type="line" smooth="yes"/>
      <point x="348" y="-393"/>
      <point x="324" y="-385"/>
      <point x="316.5" y="-373.5" type="qcurve" smooth="yes" name="inserted"/>
      <point x="309" y="-362"/>
      <point x="302" y="-322"/>
      <point x="302" y="-290" type="qcurve" smooth="yes"/>
      <point x="302" y="-258"/>
      <point x="309" y="-218"/>
      <point x="316.5" y="-207.0" type="qcurve" smooth="yes" name="inserted"/>
      <point x="324" y="-196"/>
      <point x="348" y="-188"/>
      <point x="365" y="-188" type="qcurve" smooth="yes"/>
      <point x="688" y="-188" type="line"/>
    </contour>
  </outline>
</glyph>
<glyph name="b" format="2">
  <advance width="1228"/>
  <unicode hex="0062"/>
  <outline>
    <contour>
      <point x="187" y="1107" type="line"/>
      <point x="90" y="1107" type="line" smooth="yes"/>
      <point x="73" y="1107"/>
      <point x="49" y="1115"/>
      <point x="41.5" y="1126.0" type="qcurve" smooth="yes" name="inserted"/>
      <point x="34" y="1137"/>
      <point x="27" y="1177"/>
      <point x="27" y="1209" type="qcurve" smooth="yes"/>
      <point x="27" y="1241"/>
      <point x="34" y="1281"/>
      <point x="41.5" y="1292.5" type="qcurve" smooth="yes" name="inserted"/>
      <point x="49" y="1304"/>
      <point x="73" y="1312"/>
      <point x="90" y="1312" type="qcurve" smooth="yes"/>
      <point x="374" y="1312" type="line" smooth="yes"/>
      <point x="408" y="1312"/>
      <point x="437" y="1283"/>
      <point x="437" y="1249" type="qcurve" smooth="yes"/>
      <point x="437" y="828" type="line"/>
      <point x="488" y="884"/>
      <point x="620" y="946"/>
      <point x="700" y="946" type="qcurve" smooth="yes"/>
      <point x="801" y="946"/>
      <point x="961" y="871"/>
      <point x="1016.5" y="805.5" type="qcurve" smooth="yes" name="inserted"/>
      <point x="1072" y="740"/>
      <point x="1131" y="563"/>
      <point x="1131" y="462" type="qcurve" smooth="yes"/>
      <point x="1131" y="361"/>
      <point x="1072" y="184"/>
      <point x="1016.5" y="118.5" type="qcurve" smooth="yes" name="inserted"/>
      <point x="961" y="53"/>
      <point x="801" y="-22"/>
      <point x="700" y="-22" type="qcurve" smooth="yes"/>
      <point x="603" y="-22"/>
      <point x="448" y="68"/>
      <point x="397" y="147" type="qcurve"/>
      <point x="397" y="63" type="line" smooth="yes"/>
      <point x="397" y="29"/>
      <point x="368" y="0"/>
      <point x="334" y="0" type="qcurve" smooth="yes"/>
      <point x="110" y="0" type="line" smooth="yes"/>
      <point x="93" y="0"/>
      <point x="69" y="8"/>
      <point x="61.5" y="19.5" type="qcurve" smooth="yes" name="inserted"/>
      <point x="54" y="31"/>
      <point x="47" y="71"/>
      <point x="47" y="103" type="qcurve" smooth="yes"/>
      <point x="47" y="135"/>
      <point x="54" y="175"/>
      <point x="61.5" y="186.0" type="qcurve" smooth="yes" name="inserted"/>
      <point x="69" y="197"/>
      <point x="93" y="205"/>
      <point x="110" y="205" type="qcurve" smooth="yes"/>
      <point x="187" y="205" type="line"/>
    </contour>
    <contour>
      <point x="430" y="462" type="qcurve" smooth="yes"/>
      <point x="430" y="400"/>
      <point x="467" y="304"/>
      <point x="498.5" y="271.5" type="qcurve" smooth="yes" name="inserted"/>
      <point x="530" y="239"/>
      <point x="613" y="205"/>
      <point x="660" y="205" type="qcurve" smooth="yes"/>
      <point x="707" y="205"/>
      <point x="782" y="241"/>
      <point x="808.5" y="275.0" type="qcurve" smooth="yes" name="inserted"/>
      <point x="835" y="309"/>
      <point x="863" y="403"/>
      <point x="863" y="462" type="qcurve" smooth="yes"/>
      <point x="863" y="520"/>
      <point x="835" y="615"/>
      <point x="808.5" y="649.0" type="qcurve" smooth="yes" name="inserted"/>
      <point x="782" y="683"/>
      <point x="707" y="719"/>
      <point x="660" y="719" type="qcurve" smooth="yes"/>
      <point x="613" y="719"/>
      <point x="530" y="685"/>
      <point x="498.5" y="652.5" type="qcurve" smooth="yes" name="inserted"/>
      <point x="467" y="620"/>
      <point x="430" y="524"/>
    </contour>
  </outline>
</glyph>
<glyph name="e" format="2">
  <advance width="1228"/>
  <unicode hex="0065"/>
  <outline>
    <contour>
      <point x="960" y="260" type="qcurve" smooth="yes"/>
      <point x="992" y="270"/>
      <point x="1034" y="237"/>
      <point x="1051" y="176" type="qcurve" smooth="yes"/>
      <point x="1059" y="145"/>
      <point x="1063" y="102"/>
      <point x="1058.0" y="87.5" type="qcurve" smooth="yes" name="inserted"/>
      <point x="1053" y="73"/>
      <point x="1030" y="55"/>
      <point x="1012" y="49" type="qcurve" smooth="yes"/>
      <point x="912" y="16"/>
      <point x="692" y="-22"/>
      <point x="584" y="-22" type="qcurve" smooth="yes"/>
      <point x="472" y="-22"/>
      <point x="298" y="50"/>
      <point x="238.5" y="114.5" type="qcurve" smooth="yes" name="inserted"/>
      <point x="179" y="179"/>
      <point x="117" y="357"/>
      <point x="117" y="462" type="qcurve" smooth="yes"/>
      <point x="117" y="567"/>
      <point x="185" y="744"/>
      <point x="249.5" y="808.5" type="qcurve" smooth="yes" name="inserted"/>
      <point x="314" y="873"/>
      <point x="498" y="946"/>
      <point x="614" y="946" type="qcurve" smooth="yes"/>
      <point x="731" y="946"/>
      <point x="909" y="869"/>
      <point x="968.5" y="800.5" type="qcurve" smooth="yes" name="inserted"/>
      <point x="1028" y="732"/>
      <point x="1089" y="543"/>
      <point x="1089" y="432" type="qcurve" smooth="yes"/>
      <point x="1089" y="398"/>
      <point x="1060" y="370"/>
      <point x="1026" y="370" type="qcurve" smooth="yes"/>
      <point x="384" y="370" type="line"/>
      <point x="404" y="289"/>
      <point x="516" y="205"/>
      <point x="604" y="205" type="qcurve" smooth="yes"/>
      <point x="685" y="205"/>
      <point x="860" y="230"/>
    </contour>
    <contour>
      <point x="828" y="565" type="line"/>
      <point x="811" y="637"/>
      <point x="701" y="719"/>
      <point x="614" y="719" type="qcurve" smooth="yes"/>
      <point x="523" y="719"/>
      <point x="410" y="643"/>
      <point x="388" y="565" type="qcurve"/>
    </contour>
  </outline>
</glyph>
<glyph name="j" format="2">
  <advance width="1228"/>
  <unicode hex="006A"/>
  <outline>
    <contour>
      <point x="923" y="1156" type="line" smooth="yes"/>
      <point x="923" y="1122"/>
      <point x="871" y="1093"/>
      <point x="800" y="1093" type="qcurve" smooth="yes"/>
      <point x="729" y="1093"/>
      <point x="673" y="1122"/>
      <point x="673" y="1156" type="qcurve" smooth="yes"/>
      <point x="673" y="1320" type="line" smooth="yes"/>
      <point x="673" y="1337"/>
      <point x="684" y="1361"/>
      <point x="698.0" y="1368.5" type="qcurve" smooth="yes" name="inserted"/>
      <point x="712" y="1376"/>
      <point x="759" y="1383"/>
      <point x="795" y="1383" type="qcurve" smooth="yes"/>
      <point x="866" y="1383"/>
      <point x="923" y="1354"/>
      <point x="923" y="1320" type="qcurve" smooth="yes"/>
    </contour>
    <contour>
      <point x="290" y="719" type="line" smooth="yes"/>
      <point x="273" y="719"/>
      <point x="249" y="727"/>
      <point x="241.5" y="738.0" type="qcurve" smooth="yes" name="inserted"/>
      <point x="234" y="749"/>
      <point x="227" y="789"/>
      <point x="227" y="821" type="qcurve" smooth="yes"/>
      <point x="227" y="853"/>
      <point x="234" y="893"/>
      <point x="241.5" y="904.5" type="qcurve" smooth="yes" name="inserted"/>
      <point x="249" y="916"/>
      <point x="273" y="924"/>
      <point x="290" y="924" type="qcurve" smooth="yes"/>
      <point x="860" y="924" type="line" smooth="yes"/>
      <point x="894" y="924"/>
      <point x="923" y="895"/>
      <point x="923" y="861" type="qcurve" smooth="yes"/>
      <point x="923" y="-35" type="line" smooth="yes"/>
      <point x="923" y="-223"/>
      <point x="741" y="-415"/>
      <point x="566" y="-415" type="qcurve" smooth="yes"/>
      <point x="479" y="-415"/>
      <point x="300" y="-357"/>
      <point x="209" y="-311" type="qcurve" smooth="yes"/>
      <point x="176" y="-295"/>
      <point x="161" y="-235"/>
      <point x="185" y="-176" type="qcurve" smooth="yes"/>
      <point x="197" y="-146"/>
      <point x="222" y="-113"/>
      <point x="235.5" y="-106.5" type="qcurve" smooth="yes" name="inserted"/>
      <point x="249" y="-100"/>
      <point x="278" y="-103"/>
      <point x="293" y="-110" type="qcurve" smooth="yes"/>
      <point x="326" y="-125"/>
      <point x="394" y="-153"/>
      <point x="426.0" y="-164.0" type="qcurve" smooth="yes" name="inserted"/>
      <point x="458" y="-175"/>
      <point x="518" y="-188"/>
      <point x="544" y="-188" type="qcurve" smooth="yes"/>
      <point x="606" y="-188"/>
      <point x="673" y="-109"/>
      <point x="673" y="-22" type="qcurve" smooth="yes"/>
      <point x="673" y="719" type="line"/>
    </contour>
  </outline>
</glyph>
<glyph name="m" format="2">
  <advance width="1228"/>
  <unicode hex="006D"/>
  <outline>
    <contour>
      <point x="49" y="719" type="line" smooth="yes"/>
      <point x="32" y="719"/>
      <point x="8" y="727"/>
      <point x="0.5" y="738.0" type="qcurve" smooth="yes" name="inserted"/>
      <point x="-7" y="749"/>
      <point x="-14" y="789"/>
      <point x="-14" y="821" type="qcurve" smooth="yes"/>
      <point x="-14" y="853"/>
      <point x="-7" y="893"/>
      <point x="0.5" y="904.5" type="qcurve" smooth="yes" name="inserted"/>
      <point x="8" y="916"/>
      <point x="32" y="924"/>
      <point x="49" y="924" type="qcurve" smooth="yes"/>
      <point x="223" y="924" type="line" smooth="yes"/>
      <point x="257" y="924"/>
      <point x="286" y="895"/>
      <point x="286" y="861" type="qcurve" smooth="yes"/>
      <point x="286" y="717" type="line"/>
      <point x="334" y="832"/>
      <point x="461" y="946"/>
      <point x="536" y="946" type="qcurve" smooth="yes"/>
      <point x="614" y="946"/>
      <point x="707" y="840"/>
      <point x="727" y="743" type="qcurve"/>
      <point x="774" y="845"/>
      <point x="895" y="946"/>
      <point x="966" y="946" type="qcurve" smooth="yes"/>
      <point x="1010" y="946"/>
      <point x="1083" y="911"/>
      <point x="1109.0" y="874.0" type="qcurve" smooth="yes" name="inserted"/>
      <point x="1135" y="837"/>
      <point x="1164" y="722"/>
      <point x="1164" y="643" type="qcurve" smooth="yes"/>
      <point x="1164" y="63" type="line" smooth="yes"/>
      <point x="1164" y="29"/>
      <point x="1135" y="0"/>
      <point x="1101" y="0" type="qcurve" smooth="yes"/>
      <point x="977" y="0" type="line" smooth="yes"/>
      <point x="943" y="0"/>
      <point x="914" y="29"/>
      <point x="914" y="63" type="qcurve" smooth="yes"/>
      <point x="914" y="586" type="line" smooth="yes"/>
      <point x="914" y="638"/>
      <point x="890" y="689"/>
      <point x="862" y="689" type="qcurve" smooth="yes"/>
      <point x="816" y="689"/>
      <point x="760" y="548"/>
      <point x="760" y="403" type="qcurve" smooth="yes"/>
      <point x="760" y="63" type="line" smooth="yes"/>
      <point x="760" y="29"/>
      <point x="731" y="0"/>
      <point x="697" y="0" type="qcurve" smooth="yes"/>
      <point x="573" y="0" type="line" smooth="yes"/>
      <point x="539" y="0"/>
      <point x="510" y="29"/>
      <point x="510" y="63" type="qcurve" smooth="yes"/>
      <point x="510" y="586" type="line" smooth="yes"/>
      <point x="510" y="638"/>
      <point x="486" y="689"/>
      <point x="458" y="689" type="qcurve" smooth="yes"/>
      <point x="412" y="689"/>
      <point x="356" y="548"/>
      <point x="356" y="403" type="qcurve" smooth="yes"/>
      <point x="356" y="63" type="line" smooth="yes"/>
      <point x="356" y="29"/>
      <point x="327" y="0"/>
      <point x="293" y="0" type="qcurve" smooth="yes"/>
      <point x="169" y="0" type="line" smooth="yes"/>
      <point x="135" y="0"/>
      <point x="106" y="29"/>
      <point x="106" y="63" type="qcurve" smooth="yes"/>
      <point x="106" y="719" type="line"/>
    </contour>
  </outline>
</glyph>
<glyph name="u" format="2">
  <advance width="1228"/>
  <unicode hex="0075"/>
  <outline>
    <contour>
      <point x="113" y="719" type="line" smooth="yes"/>
      <point x="96" y="719"/>
      <point x="72" y="727"/>
      <point x="64.5" y="738.5" type="qcurve" smooth="yes" name="inserted"/>
      <point x="57" y="750"/>
      <point x="50" y="790"/>
      <point x="50" y="822" type="qcurve" smooth="yes"/>
      <point x="50" y="854"/>
      <point x="57" y="894"/>
      <point x="64.5" y="905.0" type="qcurve" smooth="yes" name="inserted"/>
      <point x="72" y="916"/>
      <point x="96" y="924"/>
      <point x="113" y="924" type="qcurve" smooth="yes"/>
      <point x="377" y="924" type="line" smooth="yes"/>
      <point x="411" y="924"/>
      <point x="440" y="895"/>
      <point x="440" y="861" type="qcurve" smooth="yes"/>
      <point x="440" y="363" type="line" smooth="yes"/>
      <point x="440" y="289"/>
      <point x="491" y="205"/>
      <point x="557" y="205" type="qcurve" smooth="yes"/>
      <point x="602" y="205"/>
      <point x="683" y="262"/>
      <point x="714.0" y="310.0" type="qcurve" smooth="yes" name="inserted"/>
      <point x="745" y="358"/>
      <point x="782" y="485"/>
      <point x="782" y="556" type="qcurve" smooth="yes"/>
      <point x="782" y="719" type="line"/>
      <point x="675" y="719" type="line" smooth="yes"/>
      <point x="658" y="719"/>
      <point x="634" y="727"/>
      <point x="626.5" y="738.5" type="qcurve" smooth="yes" name="inserted"/>
      <point x="619" y="750"/>
      <point x="612" y="790"/>
      <point x="612" y="822" type="qcurve" smooth="yes"/>
      <point x="612" y="854"/>
      <point x="619" y="894"/>
      <point x="626.5" y="905.0" type="qcurve" smooth="yes" name="inserted"/>
      <point x="634" y="916"/>
      <point x="658" y="924"/>
      <point x="675" y="924" type="qcurve" smooth="yes"/>
      <point x="969" y="924" type="line" smooth="yes"/>
      <point x="1003" y="924"/>
      <point x="1032" y="895"/>
      <point x="1032" y="861" type="qcurve" smooth="yes"/>
      <point x="1032" y="205" type="line"/>
      <point x="1109" y="205" type="line" smooth="yes"/>
      <point x="1126" y="205"/>
      <point x="1150" y="197"/>
      <point x="1157.5" y="186.0" type="qcurve" smooth="yes" name="inserted"/>
      <point x="1165" y="175"/>
      <point x="1172" y="135"/>
      <point x="1172" y="103" type="qcurve" smooth="yes"/>
      <point x="1172" y="71"/>
      <point x="1165" y="31"/>
      <point x="1157.5" y="19.5" type="qcurve" smooth="yes" name="inserted"/>
      <point x="1150" y="8"/>
      <point x="1126" y="0"/>
      <point x="1109" y="0" type="qcurve" smooth="yes"/>
      <point x="885" y="0" type="line" smooth="yes"/>
      <point x="851" y="0"/>
      <point x="822" y="29"/>
      <point x="822" y="63" type="qcurve" smooth="yes"/>
      <point x="822" y="208" type="line"/>
      <point x="752" y="86"/>
      <point x="586" y="-22"/>
      <point x="492" y="-22" type="qcurve" smooth="yes"/>
      <point x="423" y="-22"/>
      <point x="311" y="24"/>
      <point x="272.0" y="66.0" type="qcurve" smooth="yes" name="inserted"/>
      <point x="233" y="108"/>
      <point x="190" y="229"/>
      <point x="190" y="304" type="qcurve" smooth="yes"/>
      <point x="190" y="719" type="line"/>
    </contour>
  </outline>
</glyph>
<glyph name="y" format="2">
  <advance width="1228"/>
  <unicode hex="0079"/>
  <outline>
    <contour>
      <point x="103" y="719" type="line" smooth="yes"/>
      <point x="86" y="719"/>
      <point x="62" y="727"/>
      <point x="54.5" y="738.0" type="qcurve" smooth="yes" name="inserted"/>
      <point x="47" y="749"/>
      <point x="40" y="789"/>
      <point x="40" y="821" type="qcurve" smooth="yes"/>
      <point x="40" y="853"/>
      <point x="47" y="893"/>
      <point x="54.5" y="904.5" type="qcurve" smooth="yes" name="inserted"/>
      <point x="62" y="916"/>
      <point x="86" y="924"/>
      <point x="103" y="924" type="qcurve" smooth="yes"/>
      <point x="507" y="924" type="line" smooth="yes"/>
      <point x="524" y="924"/>
      <point x="548" y="916"/>
      <point x="555.5" y="904.5" type="qcurve" smooth="yes" name="inserted"/>
      <point x="563" y="893"/>
      <point x="570" y="853"/>
      <point x="570" y="821" type="qcurve" smooth="yes"/>
      <point x="570" y="789"/>
      <point x="563" y="749"/>
      <point x="555.5" y="738.0" type="qcurve" smooth="yes" name="inserted"/>
      <point x="548" y="727"/>
      <point x="524" y="719"/>
      <point x="507" y="719" type="qcurve" smooth="yes"/>
      <point x="447" y="719" type="line"/>
      <point x="621" y="339" type="line"/>
      <point x="795" y="719" type="line"/>
      <point x="741" y="719" type="line" smooth="yes"/>
      <point x="724" y="719"/>
      <point x="700" y="727"/>
      <point x="692.5" y="738.0" type="qcurve" smooth="yes" name="inserted"/>
      <point x="685" y="749"/>
      <point x="678" y="789"/>
      <point x="678" y="821" type="qcurve" smooth="yes"/>
      <point x="678" y="853"/>
      <point x="685" y="893"/>
      <point x="692.5" y="904.5" type="qcurve" smooth="yes" name="inserted"/>
      <point x="700" y="916"/>
      <point x="724" y="924"/>
      <point x="741" y="924" type="qcurve" smooth="yes"/>
      <point x="1125" y="924" type="line" smooth="yes"/>
      <point x="1142" y="924"/>
      <point x="1166" y="916"/>
      <point x="1173.5" y="904.5" type="qcurve" smooth="yes" name="inserted"/>
      <point x="1181" y="893"/>
      <point x="1188" y="853"/>
      <point x="1188" y="821" type="qcurve" smooth="yes"/>
      <point x="1188" y="789"/>
      <point x="1181" y="749"/>
      <point x="1173.5" y="738.0" type="qcurve" smooth="yes" name="inserted"/>
      <point x="1166" y="727"/>
      <point x="1142" y="719"/>
      <point x="1125" y="719" type="qcurve" smooth="yes"/>
      <point x="1061" y="719" type="line"/>
      <point x="678" y="-57" type="line" smooth="yes"/>
      <point x="626" y="-162"/>
      <point x="531" y="-297"/>
      <point x="475.5" y="-337.0" type="qcurve" smooth="yes" name="inserted"/>
      <point x="420" y="-377"/>
      <point x="283" y="-411"/>
      <point x="189" y="-414" type="qcurve" smooth="yes"/>
      <point x="160" y="-415"/>
      <point x="121" y="-373"/>
      <point x="117" y="-311" type="qcurve" smooth="yes"/>
      <point x="115" y="-277"/>
      <point x="120" y="-230"/>
      <point x="127.0" y="-216.0" type="qcurve" smooth="yes" name="inserted"/>
      <point x="134" y="-202"/>
      <point x="154" y="-189"/>
      <point x="168" y="-188" type="qcurve" smooth="yes"/>
      <point x="227" y="-185"/>
      <point x="310" y="-156"/>
      <point x="344.5" y="-124.0" type="qcurve" smooth="yes" name="inserted"/>
      <point x="379" y="-92"/>
      <point x="443" y="12"/>
      <point x="484" y="90" type="qcurve"/>
      <point x="178" y="719" type="line"/>
    </contour>
  </outline>
</glyph>
<glyph name="braceleft" format="2">
  <advance width="1228"/>
  <unicode hex="007B"/>
  <outline>
    <contour>
      <point x="540" y="482" type="qcurve"/>
      <point x="575" y="461"/>
      <point x="633" y="407"/>
      <point x="654.0" y="372.5" type="qcurve" smooth="yes" name="inserted"/>
      <point x="675" y="338"/>
      <point x="698" y="254"/>
      <point x="698" y="203" type="qcurve" smooth="yes"/>
      <point x="698" y="2" type="line" smooth="yes"/>
      <point x="698" y="-98"/>
      <point x="777" y="-188"/>
      <point x="855" y="-188" type="qcurve" smooth="yes"/>
      <point x="872" y="-188"/>
      <point x="896" y="-196"/>
      <point x="903.5" y="-207.0" type="qcurve" smooth="yes" name="inserted"/>
      <point x="911" y="-218"/>
      <point x="918" y="-258"/>
      <point x="918" y="-290" type="qcurve" smooth="yes"/>
      <point x="918" y="-322"/>
      <point x="911" y="-362"/>
      <point x="903.5" y="-373.5" type="qcurve" smooth="yes" name="inserted"/>
      <point x="896" y="-385"/>
      <point x="872" y="-393"/>
      <point x="855" y="-393" type="qcurve" smooth="yes"/>
      <point x="655" y="-393"/>
      <point x="448" y="-204"/>
      <point x="448" y="-10" type="qcurve" smooth="yes"/>
      <point x="448" y="193" type="line" smooth="yes"/>
      <point x="448" y="284"/>
      <point x="364" y="379"/>
      <point x="268" y="379" type="qcurve" smooth="yes"/>
      <point x="251" y="379"/>
      <point x="227" y="387"/>
      <point x="219.5" y="398.5" type="qcurve" smooth="yes" name="inserted"/>
      <point x="212" y="410"/>
      <point x="205" y="450"/>
      <point x="205" y="482" type="qcurve" smooth="yes"/>
      <point x="205" y="514"/>
      <point x="212" y="554"/>
      <point x="219.5" y="565.0" type="qcurve" smooth="yes" name="inserted"/>
      <point x="227" y="576"/>
      <point x="251" y="584"/>
      <point x="268" y="584" type="qcurve" smooth="yes"/>
      <point x="364" y="584"/>
      <point x="448" y="679"/>
      <point x="448" y="770" type="qcurve" smooth="yes"/>
      <point x="448" y="929" type="line" smooth="yes"/>
      <point x="448" y="1122"/>
      <point x="655" y="1312"/>
      <point x="855" y="1312" type="qcurve" smooth="yes"/>
      <point x="872" y="1312"/>
      <point x="896" y="1304"/>
      <point x="903.5" y="1292.5" type="qcurve" smooth="yes" name="inserted"/>
      <point x="911" y="1281"/>
      <point x="918" y="1241"/>
      <point x="918" y="1209" type="qcurve" smooth="yes"/>
      <point x="918" y="1177"/>
      <point x="911" y="1137"/>
      <point x="903.5" y="1126.0" type="qcurve" smooth="yes" name="inserted"/>
      <point x="896" y="1115"/>
      <point x="872" y="1107"/>
      <point x="855" y="1107" type="qcurve" smooth="yes"/>
      <point x="777" y="1107"/>
      <point x="698" y="1017"/>
      <point x="698" y="917" type="qcurve" smooth="yes"/>
      <point x="698" y="760" type="line" smooth="yes"/>
      <point x="698" y="709"/>
      <point x="675" y="625"/>
      <point x="654.0" y="591.0" type="qcurve" smooth="yes" name="inserted"/>
      <point x="633" y="557"/>
      <point x="575" y="503"/>
    </contour>
  </outline>
</glyph>
<glyph name="asciitilde" format="2">
  <advance width="1228"/>
  <unicode hex="007E"/>
  <outline>
    <contour>
      <point x="239" y="460" type="qcurve" smooth="yes"/>
      <point x="225" y="452"/>
      <point x="199" y="455"/>
      <point x="188.0" y="463.5" type="qcurve" smooth="yes" name="inserted"/>
      <point x="177" y="472"/>
      <point x="160" y="499"/>
      <point x="154" y="516" type="qcurve" smooth="yes"/>
      <point x="148" y="532"/>
      <point x="143" y="566"/>
      <point x="143.5" y="582.0" type="qcurve" smooth="yes" name="inserted"/>
      <point x="144" y="598"/>
      <point x="153" y="623"/>
      <point x="161" y="631" type="qcurve" smooth="yes"/>
      <point x="229" y="693"/>
      <point x="355" y="740"/>
      <point x="415" y="740" type="qcurve" smooth="yes"/>
      <point x="468" y="740"/>
      <point x="571" y="714"/>
      <point x="621.5" y="699.0" type="qcurve" smooth="yes" name="inserted"/>
      <point x="672" y="684"/>
      <point x="773" y="658"/>
      <point x="826" y="658" type="qcurve" smooth="yes"/>
      <point x="866" y="658"/>
      <point x="947" y="677"/>
      <point x="990" y="702" type="qcurve" smooth="yes"/>
      <point x="1004" y="710"/>
      <point x="1030" y="707"/>
      <point x="1041.0" y="698.5" type="qcurve" smooth="yes" name="inserted"/>
      <point x="1052" y="690"/>
      <point x="1069" y="662"/>
      <point x="1075" y="646" type="qcurve" smooth="yes"/>
      <point x="1081" y="630"/>
      <point x="1086" y="596"/>
      <point x="1085.5" y="580.0" type="qcurve" smooth="yes" name="inserted"/>
      <point x="1085" y="564"/>
      <point x="1076" y="538"/>
      <point x="1068" y="531" type="qcurve" smooth="yes"/>
      <point x="999" y="469"/>
      <point x="873" y="422"/>
      <point x="813" y="422" type="qcurve" smooth="yes"/>
      <point x="760" y="422"/>
      <point x="657" y="448"/>
      <point x="606.5" y="463.0" type="qcurve" smooth="yes" name="inserted"/>
      <point x="556" y="478"/>
      <point x="454" y="504"/>
      <point x="402" y="504" type="qcurve" smooth="yes"/>
      <point x="362" y="504"/>
      <point x="282" y="484"/>
    </contour>
  </outline>
</glyph>
<glyph name="brokenbar" format="2">
  <advance width="1228"/>
  <unicode hex="00A6"/>
  <outline>
    <contour>
      <point x="489" y="271" type="line" smooth="yes"/>
      <point x="489" y="305"/>
      <point x="557" y="334"/>
      <point x="621" y="334" type="qcurve" smooth="yes"/>
      <point x="685" y="334"/>
      <point x="739" y="305"/>
      <point x="739" y="271" type="qcurve" smooth="yes"/>
      <point x="739" y="-352" type="line" smooth="yes"/>
      <point x="739" y="-386"/>
      <point x="671" y="-415"/>
      <point x="607" y="-415" type="qcurve" smooth="yes"/>
      <point x="543" y="-415"/>
      <point x="489" y="-386"/>
      <point x="489" y="-352" type="qcurve" smooth="yes"/>
    </contour>
    <contour>
      <point x="489" y="1271" type="line" smooth="yes"/>
      <point x="489" y="1305"/>
      <point x="557" y="1334"/>
      <point x="621" y="1334" type="qcurve" smooth="yes"/>
      <point x="685" y="1334"/>
      <point x="739" y="1305"/>
      <point x="739" y="1271" type="qcurve" smooth="yes"/>
      <point x="739" y="648" type="line" smooth="yes"/>
      <point x="739" y="614"/>
      <point x="671" y="585"/>
      <point x="607" y="585" type="qcurve" smooth="yes"/>
      <point x="543" y="585"/>
      <point x="489" y="614"/>
      <point x="489" y="648" type="qcurve" smooth="yes"/>
    </contour>
  </outline>
</glyph>
<glyph name="guillemotleft" format="2">
  <advance width="1228"/>
  <unicode hex="00AB"/>
  <outline>
    <contour>
      <point x="382" y="920" type="line" smooth="yes"/>
      <point x="390" y="933"/>
      <point x="419" y="945"/>
      <point x="437.0" y="945.5" type="qcurve" smooth="yes" name="inserted"/>
      <point x="455" y="946"/>
      <point x="496" y="937"/>
      <point x="515" y="928" type="qcurve" smooth="yes"/>
      <point x="535" y="919"/>
      <point x="570" y="894"/>
      <point x="581.5" y="879.5" type="qcurve" smooth="yes" name="inserted"/>
      <point x="593" y="865"/>
      <point x="599" y="835"/>
      <point x="590" y="820" type="qcurve" smooth="yes"/>
      <point x="426" y="551" type="line"/>
      <point x="590" y="281" type="line" smooth="yes"/>
      <point x="599" y="266"/>
      <point x="593" y="236"/>
      <point x="581.5" y="221.5" type="qcurve" smooth="yes" name="inserted"/>
      <point x="570" y="207"/>
      <point x="535" y="182"/>
      <point x="515" y="173" type="qcurve" smooth="yes"/>
      <point x="496" y="164"/>
      <point x="455" y="155"/>
      <point x="437.0" y="155.5" type="qcurve" smooth="yes" name="inserted"/>
      <point x="419" y="156"/>
      <point x="390" y="168"/>
      <point x="382" y="181" type="qcurve" smooth="yes"/>
      <point x="173" y="525" type="line" smooth="yes"/>
      <point x="165.0" y="537.5" name="inserted"/>
      <point x="165.0" y="563.0"/>
      <point x="173" y="576" type="qcurve" smooth="yes"/>
    </contour>
    <contour>
      <point x="822" y="920" type="line" smooth="yes"/>
      <point x="830" y="933"/>
      <point x="859" y="945"/>
      <point x="877.0" y="945.5" type="qcurve" smooth="yes" name="inserted"/>
      <point x="895" y="946"/>
      <point x="936" y="937"/>
      <point x="955" y="928" type="qcurve" smooth="yes"/>
      <point x="975" y="919"/>
      <point x="1010" y="894"/>
      <point x="1021.5" y="879.5" type="qcurve" smooth="yes" name="inserted"/>
      <point x="1033" y="865"/>
      <point x="1039" y="835"/>
      <point x="1030" y="820" type="qcurve" smooth="yes"/>
      <point x="866" y="551" type="line"/>
      <point x="1030" y="281" type="line" smooth="yes"/>
      <point x="1039" y="266"/>
      <point x="1033" y="236"/>
      <point x="1021.5" y="221.5" type="qcurve" smooth="yes" name="inserted"/>
      <point x="1010" y="207"/>
      <point x="975" y="182"/>
      <point x="955" y="173" type="qcurve" smooth="yes"/>
      <point x="936" y="164"/>
      <point x="895" y="155"/>
      <point x="877.0" y="155.5" type="qcurve" smooth="yes" name="inserted"/>
      <point x="859" y="156"/>
      <point x="830" y="168"/>
      <point x="822" y="181" type="qcurve" smooth="yes"/>
      <point x="613" y="525" type="line" smooth="yes"/>
      <point x="605.0" y="537.5" name="inserted"/>
      <point x="605.0" y="563.0"/>
      <point x="613" y="576" type="qcurve" smooth="yes"/>
    </contour>
  </outline>
</glyph>
<glyph name="degree" format="2">
  <advance width="1228"/>
  <unicode hex="00B0"/>
  <outline>
    <contour>
      <point x="220" y="887" type="qcurve" smooth="yes"/>
      <point x="220" y="953"/>
      <point x="271" y="1071"/>
      <point x="314.5" y="1114.5" type="qcurve" smooth="yes" name="inserted"/>
      <point x="358" y="1158"/>
      <point x="476" y="1209"/>
      <point x="542" y="1209" type="qcurve" smooth="yes"/>
      <point x="608" y="1209"/>
      <point x="726" y="1158"/>
      <point x="769.5" y="1114.5" type="qcurve" smooth="yes" name="inserted"/>
      <point x="813" y="1071"/>
      <point x="864" y="953"/>
      <point x="864" y="887" type="qcurve" smooth="yes"/>
      <point x="864" y="821"/>
      <point x="813" y="703"/>
      <point x="769.5" y="659.5" type="qcurve" smooth="yes" name="inserted"/>
      <point x="726" y="616"/>
      <point x="608" y="565"/>
      <point x="542" y="565" type="qcurve" smooth="yes"/>
      <point x="476" y="565"/>
      <point x="358" y="616"/>
      <point x="314.5" y="659.5" type="qcurve" smooth="yes" name="inserted"/>
      <point x="271" y="703"/>
      <point x="220" y="821"/>
    </contour>
    <contour>
      <point x="431" y="887" type="qcurve" smooth="yes"/>
      <point x="431" y="864"/>
      <point x="449" y="824"/>
      <point x="464.0" y="809.0" type="qcurve" smooth="yes" name="inserted"/>
      <point x="479" y="794"/>
      <point x="519" y="776"/>
      <point x="542" y="776" type="qcurve" smooth="yes"/>
      <point x="565" y="776"/>
      <point x="605" y="794"/>
      <point x="620.0" y="809.0" type="qcurve" smooth="yes" name="inserted"/>
      <point x="635" y="824"/>
      <point x="653" y="864"/>
      <point x="653" y="887" type="qcurve" smooth="yes"/>
      <point x="653" y="910"/>
      <point x="635" y="950"/>
      <point x="620.0" y="965.0" type="qcurve" smooth="yes" name="inserted"/>
      <point x="605" y="980"/>
      <point x="565" y="998"/>
      <point x="542" y="998" type="qcurve" smooth="yes"/>
      <point x="519" y="998"/>
      <point x="479" y="980"/>
      <point x="464.0" y="965.0" type="qcurve" smooth="yes" name="inserted"/>
      <point x="449" y="950"/>
      <point x="431" y="910"/>
    </contour>
  </outline>
</glyph>
<glyph name="plusminus" format="2">
  <advance width="1228"/>
  <unicode hex="00B1"/>
  <outline>
    <contour>
      <point x="233" y="620" type="line" smooth="yes"/>
      <point x="216" y="620"/>
      <point x="192" y="628"/>
      <point x="184.5" y="640.0" type="qcurve" smooth="yes" name="inserted"/>
      <point x="177" y="652"/>
      <point x="170" y="696"/>
      <point x="170" y="732" type="qcurve" smooth="yes"/>
      <point x="170" y="768"/>
      <point x="177" y="812"/>
      <point x="184.5" y="824.0" type="qcurve" smooth="yes" name="inserted"/>
      <point x="192" y="836"/>
      <point x="216" y="845"/>
      <point x="233" y="845" type="qcurve" smooth="yes"/>
      <point x="501" y="845" type="line"/>
      <point x="501" y="1063" type="line" smooth="yes"/>
      <point x="501" y="1080"/>
      <point x="510" y="1104"/>
      <point x="522.0" y="1111.5" type="qcurve" smooth="yes" name="inserted"/>
      <point x="534" y="1119"/>
      <point x="578" y="1126"/>
      <point x="614" y="1126" type="qcurve" smooth="yes"/>
      <point x="650" y="1126"/>
      <point x="694" y="1119"/>
      <point x="706.0" y="1111.5" type="qcurve" smooth="yes" name="inserted"/>
      <point x="718" y="1104"/>
      <point x="726" y="1080"/>
      <point x="726" y="1063" type="qcurve" smooth="yes"/>
      <point x="726" y="845" type="line"/>
      <point x="995" y="845" type="line" smooth="yes"/>
      <point x="1012" y="845"/>
      <point x="1036" y="836"/>
      <point x="1043.5" y="824.0" type="qcurve" smooth="yes" name="inserted"/>
      <point x="1051" y="812"/>
      <point x="1058" y="768"/>
      <point x="1058" y="732" type="qcurve" smooth="yes"/>
      <point x="1058" y="696"/>
      <point x="1051" y="652"/>
      <point x="1043.5" y="640.0" type="qcurve" smooth="yes" name="inserted"/>
      <point x="1036" y="628"/>
      <point x="1012" y="620"/>
      <point x="995" y="620" type="qcurve" smooth="yes"/>
      <point x="726" y="620" type="line"/>
      <point x="726" y="401" type="line" smooth="yes"/>
      <point x="726" y="384"/>
      <point x="718" y="360"/>
      <point x="706.0" y="352.5" type="qcurve" smooth="yes" name="inserted"/>
      <point x="694" y="345"/>
      <point x="650" y="338"/>
      <point x="614" y="338" type="qcurve" smooth="yes"/>
      <point x="578" y="338"/>
      <point x="534" y="345"/>
      <point x="522.0" y="352.5" type="qcurve" smooth="yes" name="inserted"/>
      <point x="510" y="360"/>
      <point x="501" y="384"/>
      <point x="501" y="401" type="qcurve" smooth="yes"/>
      <point x="501" y="620" type="line"/>
    </contour>
    <contour>
      <point x="995" y="225" type="line" smooth="yes"/>
      <point x="1012" y="225"/>
      <point x="1036" y="216"/>
      <point x="1043.5" y="204.0" type="qcurve" smooth="yes" name="inserted"/>
      <point x="1051" y="192"/>
      <point x="1058" y="148"/>
      <point x="1058" y="112" type="qcurve" smooth="yes"/>
      <point x="1058" y="76"/>
      <point x="1051" y="32"/>
      <point x="1043.5" y="20.0" type="qcurve" smooth="yes" name="inserted"/>
      <point x="1036" y="8"/>
      <point x="1012" y="0"/>
      <point x="995" y="0" type="qcurve" smooth="yes"/>
      <point x="233" y="0" type="line" smooth="yes"/>
      <point x="216" y="0"/>
      <point x="192" y="8"/>
      <point x="184.5" y="20.0" type="qcurve" smooth="yes" name="inserted"/>
      <point x="177" y="32"/>
      <point x="170" y="76"/>
      <point x="170" y="112" type="qcurve" smooth="yes"/>
      <point x="170" y="148"/>
      <point x="177" y="192"/>
      <point x="184.5" y="204.0" type="qcurve" smooth="yes" name="inserted"/>
      <point x="192" y="216"/>
      <point x="216" y="225"/>
      <point x="233" y="225" type="qcurve" smooth="yes"/>
    </contour>
  </outline>
</glyph>
<glyph name="acute" format="2">
  <advance width="1228"/>
  <unicode hex="00B4"/>
  <outline>
    <contour>
      <point x="824" y="1392" type="line" smooth="yes"/>
      <point x="852" y="1408"/>
      <point x="914" y="1369"/>
      <point x="944" y="1301" type="qcurve" smooth="yes"/>
      <point x="974" y="1232"/>
      <point x="967" y="1165"/>
      <point x="941" y="1158" type="qcurve" smooth="yes"/>
      <point x="461" y="1033" type="line" smooth="yes"/>
      <point x="437" y="1026"/>
      <point x="401" y="1049"/>
      <point x="393" y="1072" type="qcurve" smooth="yes"/>
      <point x="385" y="1094"/>
      <point x="396" y="1133"/>
      <point x="416" y="1145" type="qcurve" smooth="yes"/>
    </contour>
  </outline>
</glyph>
<glyph name="oslash" format="2">
  <advance width="1228"/>
  <unicode hex="00F8"/>
  <outline>
    <contour>
      <point x="614" y="-22" type="qcurve" smooth="yes"/>
      <point x="534" y="-22"/>
      <point x="397" y="12"/>
      <point x="340" y="44" type="qcurve"/>
      <point x="298" y="1" type="line" smooth="yes"/>
      <point x="275" y="-24"/>
      <point x="227" y="-19"/>
      <point x="187" y="20" type="qcurve" smooth="yes"/>
      <point x="167" y="39"/>
      <point x="146" y="70"/>
      <point x="143.5" y="82.5" type="qcurve" smooth="yes" name="inserted"/>
      <point x="141" y="95"/>
      <point x="152" y="118"/>
      <point x="164" y="130" type="qcurve" smooth="yes"/>
      <point x="199" y="166" type="line"/>
      <point x="154" y="226"/>
      <point x="107" y="376"/>
      <point x="107" y="462" type="qcurve" smooth="yes"/>
      <point x="107" y="567"/>
      <point x="179" y="744"/>
      <point x="245.0" y="808.5" type="qcurve" smooth="yes" name="inserted"/>
      <point x="311" y="873"/>
      <point x="498" y="946"/>
      <point x="614" y="946" type="qcurve" smooth="yes"/>
      <point x="693" y="946"/>
      <point x="831" y="911"/>
      <point x="888" y="879" type="qcurve"/>
      <point x="930" y="923" type="line" smooth="yes"/>
      <point x="942" y="935"/>
      <point x="964" y="947"/>
      <point x="977.0" y="945.5" type="qcurve" smooth="yes" name="inserted"/>
      <point x="990" y="944"/>
      <point x="1021" y="923"/>
      <point x="1041" y="904" type="qcurve" smooth="yes"/>
      <point x="1061" y="884"/>
      <point x="1082" y="854"/>
      <point x="1084.5" y="841.5" type="qcurve" smooth="yes" name="inserted"/>
      <point x="1087" y="829"/>
      <point x="1076" y="806"/>
      <point x="1064" y="794" type="qcurve" smooth="yes"/>
      <point x="1028" y="757" type="line"/>
      <point x="1073" y="697"/>
      <point x="1121" y="548"/>
      <point x="1121" y="462" type="qcurve" smooth="yes"/>
      <point x="1121" y="357"/>
      <point x="1049" y="179"/>
      <point x="983.0" y="114.5" type="qcurve" smooth="yes" name="inserted"/>
      <point x="917" y="50"/>
      <point x="730" y="-22"/>
    </contour>
    <contour>
      <point x="853" y="462" type="qcurve" smooth="yes"/>
      <point x="853.0" y="489.0" name="inserted"/>
      <point x="845.5" y="538.0"/>
      <point x="838" y="560" type="qcurve"/>
      <point x="513" y="224" type="line"/>
      <point x="535.0" y="214.5" name="inserted"/>
      <point x="585.5" y="205.0"/>
      <point x="614" y="205" type="qcurve" smooth="yes"/>
      <point x="668" y="205"/>
      <point x="757" y="241"/>
      <point x="788.0" y="275.0" type="qcurve" smooth="yes" name="inserted"/>
      <point x="819" y="309"/>
      <point x="853" y="403"/>
    </contour>
    <contour>
      <point x="614" y="719" type="qcurve" smooth="yes"/>
      <point x="560" y="719"/>
      <point x="471" y="683"/>
      <point x="440.0" y="649.0" type="qcurve" smooth="yes" name="inserted"/>
      <point x="409" y="615"/>
      <point x="375" y="520"/>
      <point x="375" y="462" type="qcurve" smooth="yes"/>
      <point x="375.0" y="436.0" name="inserted"/>
      <point x="382.0" y="386.5"/>
      <point x="389" y="363" type="qcurve"/>
      <point x="714" y="700" type="line"/>
      <point x="691.0" y="709.5" name="inserted"/>
      <point x="641.0" y="719.0"/>
    </contour>
  </outline>
</glyph>
<glyph name="eogonek" format="2">
  <advance width="1228"/>
  <unicode hex="0119"/>
  <outline>
    <contour>
      <point x="960" y="260" type="qcurve" smooth="yes"/>
      <point x="992" y="270"/>
      <point x="1034" y="237"/>
      <point x="1051" y="176" type="qcurve" smooth="yes"/>
      <point x="1067" y="118"/>
      <point x="1052" y="65"/>
      <point x="1021" y="52" type="qcurve" smooth="yes"/>
      <point x="1006" y="46"/>
      <point x="968" y="16"/>
      <point x="934" y="-15" type="qcurve" smooth="yes"/>
      <point x="868" y="-75"/>
      <point x="792" y="-183"/>
      <point x="792" y="-231" type="qcurve" smooth="yes"/>
      <point x="792" y="-266"/>
      <point x="837" y="-298"/>
      <point x="880" y="-298" type="qcurve" smooth="yes"/>
      <point x="909" y="-298"/>
      <point x="968" y="-290"/>
      <point x="1000" y="-285" type="qcurve" smooth="yes"/>
      <point x="1020" y="-282"/>
      <point x="1045" y="-318"/>
      <point x="1048" y="-353" type="qcurve" smooth="yes"/>
      <point x="1051.0" y="-388.5" name="inserted"/>
      <point x="1032.5" y="-431.0"/>
      <point x="1011" y="-438" type="qcurve" smooth="yes"/>
      <point x="960" y="-454"/>
      <point x="850" y="-472"/>
      <point x="795" y="-472" type="qcurve" smooth="yes"/>
      <point x="677" y="-472"/>
      <point x="549" y="-369"/>
      <point x="549" y="-269" type="qcurve" smooth="yes"/>
      <point x="549" y="-229"/>
      <point x="574" y="-159"/>
      <point x="595.5" y="-127.5" type="qcurve" smooth="yes" name="inserted"/>
      <point x="617" y="-96"/>
      <point x="677" y="-41"/>
      <point x="713" y="-15" type="qcurve"/>
      <point x="680" y="-18"/>
      <point x="616" y="-22"/>
      <point x="584" y="-22" type="qcurve" smooth="yes"/>
      <point x="472" y="-22"/>
      <point x="298" y="50"/>
      <point x="238.5" y="114.5" type="qcurve" smooth="yes" name="inserted"/>
      <point x="179" y="179"/>
      <point x="117" y="357"/>
      <point x="117" y="462" type="qcurve" smooth="yes"/>
      <point x="117" y="567"/>
      <point x="185" y="744"/>
      <point x="249.5" y="808.5" type="qcurve" smooth="yes" name="inserted"/>
      <point x="314" y="873"/>
      <point x="498" y="946"/>
      <point x="614" y="946" type="qcurve" smooth="yes"/>
      <point x="731" y="946"/>
      <point x="909" y="869"/>
      <point x="968.5" y="800.5" type="qcurve" smooth="yes" name="inserted"/>
      <point x="1028" y="732"/>
      <point x="1089" y="543"/>
      <point x="1089" y="432" type="qcurve" smooth="yes"/>
      <point x="1089" y="398"/>
      <point x="1060" y="370"/>
      <point x="1026" y="370" type="qcurve" smooth="yes"/>
      <point x="384" y="370" type="line"/>
      <point x="404" y="289"/>
      <point x="516" y="205"/>
      <point x="604" y="205" type="qcurve" smooth="yes"/>
      <point x="685" y="205"/>
      <point x="860" y="230"/>
    </contour>
    <contour>
      <point x="828" y="565" type="line"/>
      <point x="811" y="637"/>
      <point x="701" y="719"/>
      <point x="614" y="719" type="qcurve" smooth="yes"/>
      <point x="523" y="719"/>
      <point x="410" y="643"/>
      <point x="388" y="565" type="qcurve"/>
    </contour>
  </outline>
</glyph>
<glyph name="hbar" format="2">
  <advance width="1228"/>
  <unicode hex="0127"/>
  <outline>
    <contour>
      <point x="207" y="1155" type="line"/>
      <point x="207" y="1249" type="line" smooth="yes"/>
      <point x="207" y="1283"/>
      <point x="236" y="1312"/>
      <point x="270" y="1312" type="qcurve" smooth="yes"/>
      <point x="394" y="1312" type="line" smooth="yes"/>
      <point x="428" y="1312"/>
      <point x="457" y="1283"/>
      <point x="457" y="1249" type="qcurve" smooth="yes"/>
      <point x="457" y="1155" type="line"/>
      <point x="655" y="1155" type="line" smooth="yes"/>
      <point x="672" y="1155"/>
      <point x="696" y="1147"/>
      <point x="703.5" y="1135.5" type="qcurve" smooth="yes" name="inserted"/>
      <point x="711" y="1124"/>
      <point x="718" y="1084"/>
      <point x="718" y="1052" type="qcurve" smooth="yes"/>
      <point x="718" y="1020"/>
      <point x="711" y="980"/>
      <point x="703.5" y="969.0" type="qcurve" smooth="yes" name="inserted"/>
      <point x="696" y="958"/>
      <point x="672" y="950"/>
      <point x="655" y="950" type="qcurve" smooth="yes"/>
      <point x="457" y="950" type="line"/>
      <point x="457" y="683" type="line"/>
      <point x="520" y="779"/>
      <point x="664" y="866"/>
      <point x="747" y="866" type="qcurve" smooth="yes"/>
      <point x="816" y="866"/>
      <point x="928" y="820"/>
      <point x="967.0" y="778.0" type="qcurve" smooth="yes" name="inserted"/>
      <point x="1006" y="736"/>
      <point x="1049" y="615"/>
      <point x="1049" y="540" type="qcurve" smooth="yes"/>
      <point x="1049" y="205" type="line"/>
      <point x="1126" y="205" type="line" smooth="yes"/>
      <point x="1143" y="205"/>
      <point x="1167" y="197"/>
      <point x="1174.5" y="185.5" type="qcurve" smooth="yes" name="inserted"/>
      <point x="1182" y="174"/>
      <point x="1189" y="134"/>
      <point x="1189" y="102" type="qcurve" smooth="yes"/>
      <point x="1189" y="70"/>
      <point x="1182" y="30"/>
      <point x="1174.5" y="19.0" type="qcurve" smooth="yes" name="inserted"/>
      <point x="1167" y="8"/>
      <point x="1143" y="0"/>
      <point x="1126" y="0" type="qcurve" smooth="yes"/>
      <point x="752" y="0" type="line" smooth="yes"/>
      <point x="735" y="0"/>
      <point x="711" y="8"/>
      <point x="703.5" y="19.0" type="qcurve" smooth="yes" name="inserted"/>
      <point x="696" y="30"/>
      <point x="689" y="70"/>
      <point x="689" y="102" type="qcurve" smooth="yes"/>
      <point x="689" y="134"/>
      <point x="696" y="174"/>
      <point x="703.5" y="185.5" type="qcurve" smooth="yes" name="inserted"/>
      <point x="711" y="197"/>
      <point x="735" y="205"/>
      <point x="752" y="205" type="qcurve" smooth="yes"/>
      <point x="799" y="205" type="line"/>
      <point x="799" y="481" type="line" smooth="yes"/>
      <point x="799" y="555"/>
      <point x="748" y="639"/>
      <point x="682" y="639" type="qcurve" smooth="yes"/>
      <point x="637" y="639"/>
      <point x="556" y="582"/>
      <point x="525.0" y="534.0" type="qcurve" smooth="yes" name="inserted"/>
      <point x="494" y="486"/>
      <point x="457" y="358"/>
      <point x="457" y="288" type="qcurve" smooth="yes"/>
      <point x="457" y="205" type="line"/>
      <point x="504" y="205" type="line" smooth="yes"/>
      <point x="521" y="205"/>
      <point x="545" y="197"/>
      <point x="552.5" y="185.5" type="qcurve" smooth="yes" name="inserted"/>
      <point x="560" y="174"/>
      <point x="567" y="134"/>
      <point x="567" y="102" type="qcurve" smooth="yes"/>
      <point x="567" y="70"/>
      <point x="560" y="30"/>
      <point x="552.5" y="19.0" type="qcurve" smooth="yes" name="inserted"/>
      <point x="545" y="8"/>
      <point x="521" y="0"/>
      <point x="504" y="0" type="qcurve" smooth="yes"/>
      <point x="130" y="0" type="line" smooth="yes"/>
      <point x="113" y="0"/>
      <point x="89" y="8"/>
      <point x="81.5" y="19.0" type="qcurve" smooth="yes" name="inserted"/>
      <point x="74" y="30"/>
      <point x="67" y="70"/>
      <point x="67" y="102" type="qcurve" smooth="yes"/>
      <point x="67" y="134"/>
      <point x="74" y="174"/>
      <point x="81.5" y="185.5" type="qcurve" smooth="yes" name="inserted"/>
      <point x="89" y="197"/>
      <point x="113" y="205"/>
      <point x="130" y="205" type="qcurve" smooth="yes"/>
      <point x="207" y="205" type="line"/>
      <point x="207" y="950" type="line"/>
      <point x="93" y="950" type="line" smooth="yes"/>
      <point x="76" y="950"/>
      <point x="52" y="958"/>
      <point x="44.5" y="969.0" type="qcurve" smooth="yes" name="inserted"/>
      <point x="37" y="980"/>
      <point x="30" y="1020"/>
      <point x="30" y="1052" type="qcurve" smooth="yes"/>
      <point x="30" y="1084"/>
      <point x="37" y="1124"/>
      <point x="44.5" y="1135.5" type="qcurve" smooth="yes" name="inserted"/>
      <point x="52" y="1147"/>
      <point x="76" y="1155"/>
      <point x="93" y="1155" type="qcurve" smooth="yes"/>
    </contour>
  </outline>
</glyph>
<glyph name="Ldot" format="2">
  <advance width="1228"/>
  <unicode hex="013F"/>
  <outline>
    <contour>
      <point x="269" y="982" type="line"/>
      <point x="123" y="982" type="line" smooth="yes"/>
      <point x="106" y="982"/>
      <point x="82" y="990"/>
      <point x="74.5" y="1001.0" type="qcurve" smooth="yes" name="inserted"/>
      <point x="67" y="1012"/>
      <point x="60" y="1052"/>
      <point x="60" y="1084" type="qcurve" smooth="yes"/>
      <point x="60" y="1116"/>
      <point x="67" y="1156"/>
      <point x="74.5" y="1167.5" type="qcurve" smooth="yes" name="inserted"/>
      <point x="82" y="1179"/>
      <point x="106" y="1187"/>
      <point x="123" y="1187" type="qcurve" smooth="yes"/>
      <point x="737" y="1187" type="line" smooth="yes"/>
      <point x="754" y="1187"/>
      <point x="778" y="1179"/>
      <point x="785.5" y="1167.5" type="qcurve" smooth="yes" name="inserted"/>
      <point x="793" y="1156"/>
      <point x="800" y="1116"/>
      <point x="800" y="1084" type="qcurve" smooth="yes"/>
      <point x="800" y="1052"/>
      <point x="793" y="1012"/>
      <point x="785.5" y="1001.0" type="qcurve" smooth="yes" name="inserted"/>
      <point x="778" y="990"/>
      <point x="754" y="982"/>
      <point x="737" y="982" type="qcurve" smooth="yes"/>
      <point x="519" y="982" type="line"/>
      <point x="519" y="215" type="line"/>
      <point x="870" y="215" type="line"/>
      <point x="870" y="397" type="line" smooth="yes"/>
      <point x="870" y="431"/>
      <point x="930" y="460"/>
      <point x="1002" y="460" type="qcurve" smooth="yes"/>
      <point x="1038" y="460"/>
      <point x="1083" y="453"/>
      <point x="1096.5" y="445.5" type="qcurve" smooth="yes" name="inserted"/>
      <point x="1110" y="438"/>
      <point x="1120" y="414"/>
      <point x="1120" y="397" type="qcurve" smooth="yes"/>
      <point x="1120" y="65" type="line" smooth="yes"/>
      <point x="1120" y="30"/>
      <point x="1090" y="0"/>
      <point x="1055" y="0" type="qcurve" smooth="yes"/>
      <point x="123" y="0" type="line" smooth="yes"/>
      <point x="106" y="0"/>
      <point x="82" y="8"/>
      <point x="74.5" y="19.0" type="qcurve" smooth="yes" name="inserted"/>
      <point x="67" y="30"/>
      <point x="60" y="70"/>
      <point x="60" y="102" type="qcurve" smooth="yes"/>
      <point x="60" y="134"/>
      <point x="67" y="174"/>
      <point x="74.5" y="185.5" type="qcurve" smooth="yes" name="inserted"/>
      <point x="82" y="197"/>
      <point x="106" y="205"/>
      <point x="123" y="205" type="qcurve" smooth="yes"/>
      <point x="269" y="205" type="line"/>
    </contour>
    <contour>
      <point x="634" y="716" type="qcurve" smooth="yes"/>
      <point x="634" y="753"/>
      <point x="662" y="819"/>
      <point x="686.5" y="843.5" type="qcurve" smooth="yes" name="inserted"/>
      <point x="711" y="868"/>
      <point x="777" y="896"/>
      <point x="814" y="896" type="qcurve" smooth="yes"/>
      <point x="851" y="896"/>
      <point x="917" y="868"/>
      <point x="941.5" y="843.5" type="qcurve" smooth="yes" name="inserted"/>
      <point x="966" y="819"/>
      <point x="994" y="753"/>
      <point x="994" y="716" type="qcurve" smooth="yes"/>
      <point x="994" y="679"/>
      <point x="966" y="613"/>
      <point x="941.5" y="588.5" type="qcurve" smooth="yes" name="inserted"/>
      <point x="917" y="564"/>
      <point x="851" y="536"/>
      <point x="814" y="536" type="qcurve" smooth="yes"/>
      <point x="777" y="536"/>
      <point x="711" y="564"/>
      <point x="686.5" y="588.5" type="qcurve" smooth="yes" name="inserted"/>
      <point x="662" y="613"/>
      <point x="634" y="679"/>
    </contour>
  </outline>
</glyph>
<glyph name="Lslash" format="2">
  <advance width="1228"/>
  <unicode hex="0141"/>
  <outline>
    <contour>
      <point x="269" y="388" type="line"/>
      <point x="139" y="311" type="line" smooth="yes"/>
      <point x="125" y="302"/>
      <point x="100" y="297"/>
      <point x="88.0" y="302.5" type="qcurve" smooth="yes" name="inserted"/>
      <point x="76" y="308"/>
      <point x="49" y="339"/>
      <point x="33" y="366" type="qcurve" smooth="yes"/>
      <point x="17" y="393"/>
      <point x="2" y="432"/>
      <point x="3.0" y="445.5" type="qcurve" smooth="yes" name="inserted"/>
      <point x="4" y="459"/>
      <point x="20" y="478"/>
      <point x="35" y="487" type="qcurve" smooth="yes"/>
      <point x="269" y="626" type="line"/>
      <point x="269" y="982" type="line"/>
      <point x="123" y="982" type="line" smooth="yes"/>
      <point x="106" y="982"/>
      <point x="82" y="990"/>
      <point x="74.5" y="1001.0" type="qcurve" smooth="yes" name="inserted"/>
      <point x="67" y="1012"/>
      <point x="60" y="1052"/>
      <point x="60" y="1084" type="qcurve" smooth="yes"/>
      <point x="60" y="1116"/>
      <point x="67" y="1156"/>
      <point x="74.5" y="1167.5" type="qcurve" smooth="yes" name="inserted"/>
      <point x="82" y="1179"/>
      <point x="106" y="1187"/>
      <point x="123" y="1187" type="qcurve" smooth="yes"/>
      <point x="737" y="1187" type="line" smooth="yes"/>
      <point x="754" y="1187"/>
      <point x="778" y="1179"/>
      <point x="785.5" y="1167.5" type="qcurve" smooth="yes" name="inserted"/>
      <point x="793" y="1156"/>
      <point x="800" y="1116"/>
      <point x="800" y="1084" type="qcurve" smooth="yes"/>
      <point x="800" y="1052"/>
      <point x="793" y="1012"/>
      <point x="785.5" y="1001.0" type="qcurve" smooth="yes" name="inserted"/>
      <point x="778" y="990"/>
      <point x="754" y="982"/>
      <point x="737" y="982" type="qcurve" smooth="yes"/>
      <point x="519" y="982" type="line"/>
      <point x="519" y="774" type="line"/>
      <point x="690" y="876" type="line" smooth="yes"/>
      <point x="705" y="885"/>
      <point x="729" y="890"/>
      <point x="741.5" y="884.0" type="qcurve" smooth="yes" name="inserted"/>
      <point x="754" y="878"/>
      <point x="780" y="847"/>
      <point x="797" y="820" type="qcurve" smooth="yes"/>
      <point x="813" y="793"/>
      <point x="827" y="755"/>
      <point x="826.5" y="741.5" type="qcurve" smooth="yes" name="inserted"/>
      <point x="826" y="728"/>
      <point x="809" y="709"/>
      <point x="795" y="700" type="qcurve" smooth="yes"/>
      <point x="519" y="536" type="line"/>
      <point x="519" y="215" type="line"/>
      <point x="870" y="215" type="line"/>
      <point x="870" y="527" type="line" smooth="yes"/>
      <point x="870" y="561"/>
      <point x="930" y="590"/>
      <point x="1002" y="590" type="qcurve" smooth="yes"/>
      <point x="1038" y="590"/>
      <point x="1083" y="583"/>
      <point x="1096.5" y="575.5" type="qcurve" smooth="yes" name="inserted"/>
      <point x="1110" y="568"/>
      <point x="1120" y="544"/>
      <point x="1120" y="527" type="qcurve" smooth="yes"/>
      <point x="1120" y="65" type="line" smooth="yes"/>
      <point x="1120" y="30"/>
      <point x="1090" y="0"/>
      <point x="1055" y="0" type="qcurve" smooth="yes"/>
      <point x="123" y="0" type="line" smooth="yes"/>
      <point x="106" y="0"/>
      <point x="82" y="8"/>
      <point x="74.5" y="19.0" type="qcurve" smooth="yes" name="inserted"/>
      <point x="67" y="30"/>
      <point x="60" y="70"/>
      <point x="60" y="102" type="qcurve" smooth="yes"/>
      <point x="60" y="134"/>
      <point x="67" y="174"/>
      <point x="74.5" y="185.5" type="qcurve" smooth="yes" name="inserted"/>
      <point x="82" y="197"/>
      <point x="106" y="205"/>
      <point x="123" y="205" type="qcurve" smooth="yes"/>
      <point x="269" y="205" type="line"/>
    </contour>
  </outline>
</glyph>
<glyph name="oe" format="2">
  <advance width="1228"/>
  <unicode hex="0153"/>
  <outline>
    <contour>
      <point x="1076" y="255" type="qcurve" smooth="yes"/>
      <point x="1095" y="263"/>
      <point x="1125" y="259"/>
      <point x="1137.0" y="248.5" type="qcurve" smooth="yes" name="inserted"/>
      <point x="1149" y="238"/>
      <point x="1168" y="202"/>
      <point x="1176" y="179" type="qcurve" smooth="yes"/>
      <point x="1195" y="125"/>
      <point x="1181" y="65"/>
      <point x="1145" y="49" type="qcurve" smooth="yes"/>
      <point x="1077" y="20"/>
      <point x="924" y="-22"/>
      <point x="843" y="-22" type="qcurve" smooth="yes"/>
      <point x="767" y="-22"/>
      <point x="654" y="33"/>
      <point x="616" y="84" type="qcurve"/>
      <point x="577" y="33"/>
      <point x="462" y="-22"/>
      <point x="384" y="-22" type="qcurve" smooth="yes"/>
      <point x="287" y="-22"/>
      <point x="151" y="50"/>
      <point x="108.5" y="114.5" type="qcurve" smooth="yes" name="inserted"/>
      <point x="66" y="179"/>
      <point x="27" y="357"/>
      <point x="27" y="462" type="qcurve" smooth="yes"/>
      <point x="27" y="567"/>
      <point x="66" y="744"/>
      <point x="108.5" y="808.5" type="qcurve" smooth="yes" name="inserted"/>
      <point x="151" y="873"/>
      <point x="287" y="946"/>
      <point x="384" y="946" type="qcurve" smooth="yes"/>
      <point x="465" y="946"/>
      <point x="581" y="888"/>
      <point x="620" y="836" type="qcurve"/>
      <point x="662" y="888"/>
      <point x="779" y="946"/>
      <point x="858" y="946" type="qcurve" smooth="yes"/>
      <point x="960" y="946"/>
      <point x="1090" y="869"/>
      <point x="1127.5" y="800.5" type="qcurve" smooth="yes" name="inserted"/>
      <point x="1165" y="732"/>
      <point x="1193" y="543"/>
      <point x="1193" y="432" type="qcurve" smooth="yes"/>
      <point x="1193" y="398"/>
      <point x="1164" y="370"/>
      <point x="1130" y="370" type="qcurve" smooth="yes"/>
      <point x="724" y="370" type="line"/>
      <point x="735" y="289"/>
      <point x="801" y="205"/>
      <point x="858" y="205" type="qcurve" smooth="yes"/>
      <point x="914" y="205"/>
      <point x="1014" y="229"/>
    </contour>
    <contour>
      <point x="384" y="719" type="qcurve" smooth="yes"/>
      <point x="319" y="719"/>
      <point x="265" y="595"/>
      <point x="265" y="462" type="qcurve" smooth="yes"/>
      <point x="265" y="329"/>
      <point x="319" y="205"/>
      <point x="384" y="205" type="qcurve" smooth="yes"/>
      <point x="449" y="205"/>
      <point x="503" y="329"/>
      <point x="503" y="462" type="qcurve" smooth="yes"/>
      <point x="503" y="595"/>
      <point x="449" y="719"/>
    </contour>
    <contour>
      <point x="968" y="565" type="line"/>
      <point x="963" y="637"/>
      <point x="909" y="719"/>
      <point x="858" y="719" type="qcurve" smooth="yes"/>
      <point x="797" y="719"/>
      <point x="735" y="643"/>
      <point x="724" y="565" type="qcurve"/>
    </contour>
  </outline>
</glyph>
<glyph name="Scedilla" format="2">
  <advance width="1228"/>
  <unicode hex="015E"/>
  <outline>
    <contour>
      <point x="389" y="41" type="line" smooth="yes"/>
      <point x="389" y="7"/>
      <point x="341" y="-22"/>
      <point x="277" y="-22" type="qcurve" smooth="yes"/>
      <point x="213" y="-22"/>
      <point x="159" y="7"/>
      <point x="159" y="41" type="qcurve" smooth="yes"/>
      <point x="159" y="375" type="line" smooth="yes"/>
      <point x="159" y="409"/>
      <point x="202" y="438"/>
      <point x="251" y="438" type="qcurve" smooth="yes"/>
      <point x="286" y="438"/>
      <point x="327" y="420"/>
      <point x="338" y="398" type="qcurve" smooth="yes"/>
      <point x="392" y="296"/>
      <point x="540" y="191"/>
      <point x="642" y="191" type="qcurve" smooth="yes"/>
      <point x="732" y="191"/>
      <point x="822" y="264"/>
      <point x="822" y="327" type="qcurve" smooth="yes"/>
      <point x="822" y="369"/>
      <point x="779" y="423"/>
      <point x="742" y="441" type="qcurve" smooth="yes"/>
      <point x="702" y="460"/>
      <point x="596" y="485"/>
      <point x="538.0" y="497.0" type="qcurve" smooth="yes" name="inserted"/>
      <point x="480" y="509"/>
      <point x="362" y="540"/>
      <point x="311" y="567" type="qcurve" smooth="yes"/>
      <point x="276" y="585"/>
      <point x="217" y="635"/>
      <point x="195.0" y="668.5" type="qcurve" smooth="yes" name="inserted"/>
      <point x="173" y="702"/>
      <point x="149" y="790"/>
      <point x="149" y="846" type="qcurve" smooth="yes"/>
      <point x="149" y="926"/>
      <point x="205" y="1059"/>
      <point x="256.5" y="1107.0" type="qcurve" smooth="yes" name="inserted"/>
      <point x="308" y="1155"/>
      <point x="451" y="1209"/>
      <point x="538" y="1209" type="qcurve" smooth="yes"/>
      <point x="619" y="1209"/>
      <point x="754" y="1157"/>
      <point x="804" y="1109" type="qcurve"/>
      <point x="804" y="1146" type="line" smooth="yes"/>
      <point x="804" y="1180"/>
      <point x="852" y="1209"/>
      <point x="916" y="1209" type="qcurve" smooth="yes"/>
      <point x="980" y="1209"/>
      <point x="1034" y="1180"/>
      <point x="1034" y="1146" type="qcurve" smooth="yes"/>
      <point x="1034" y="872" type="line" smooth="yes"/>
      <point x="1034" y="838"/>
      <point x="991" y="809"/>
      <point x="942" y="809" type="qcurve" smooth="yes"/>
      <point x="908" y="809"/>
      <point x="871" y="825"/>
      <point x="860" y="841" type="qcurve" smooth="yes"/>
      <point x="814" y="913"/>
      <point x="668" y="996"/>
      <point x="568" y="996" type="qcurve" smooth="yes"/>
      <point x="493" y="996"/>
      <point x="412" y="920"/>
      <point x="412" y="863" type="qcurve" smooth="yes"/>
      <point x="412" y="833"/>
      <point x="450" y="796"/>
      <point x="482" y="783" type="qcurve" smooth="yes"/>
      <point x="521" y="768"/>
      <point x="630" y="749"/>
      <point x="690.5" y="737.0" type="qcurve" smooth="yes" name="inserted"/>
      <point x="751" y="725"/>
      <point x="874" y="689"/>
      <point x="927" y="657" type="qcurve" smooth="yes"/>
      <point x="961" y="636"/>
      <point x="1020" y="579"/>
      <point x="1041.5" y="541.0" type="qcurve" smooth="yes" name="inserted"/>
      <point x="1063" y="503"/>
      <point x="1087" y="405"/>
      <point x="1087" y="344" type="qcurve" smooth="yes"/>
      <point x="1087" y="266"/>
      <point x="1040" y="136"/>
      <point x="992.0" y="88.0" type="qcurve" smooth="yes" name="inserted"/>
      <point x="944" y="40"/>
      <point x="800" y="-17"/>
      <point x="704" y="-21" type="qcurve"/>
      <point x="704" y="-93" type="line"/>
      <point x="762" y="-91"/>
      <point x="848" y="-117"/>
      <point x="875.5" y="-142.0" type="qcurve" smooth="yes" name="inserted"/>
      <point x="903" y="-167"/>
      <point x="930" y="-238"/>
      <point x="930" y="-281" type="qcurve" smooth="yes"/>
      <point x="930" y="-372"/>
      <point x="789" y="-472"/>
      <point x="651" y="-472" type="qcurve" smooth="yes"/>
      <point x="576" y="-472"/>
      <point x="445" y="-450"/>
      <point x="392" y="-430" type="qcurve" smooth="yes"/>
      <point x="373" y="-422"/>
      <point x="370" y="-380"/>
      <point x="381" y="-348" type="qcurve" smooth="yes"/>
      <point x="394" y="-313"/>
      <point x="425" y="-282"/>
      <point x="445" y="-288" type="qcurve"/>
      <point x="484" y="-303"/>
      <point x="558" y="-322"/>
      <point x="608" y="-322" type="qcurve" smooth="yes"/>
      <point x="651.0" y="-322.0" name="inserted"/>
      <point x="694.0" y="-295.5"/>
      <point x="694" y="-269" type="qcurve" smooth="yes"/>
      <point x="694" y="-248"/>
      <point x="672" y="-225"/>
      <point x="655.0" y="-219.5" type="qcurve" smooth="yes" name="inserted"/>
      <point x="638" y="-214"/>
      <point x="593" y="-216"/>
      <point x="571" y="-221" type="qcurve" smooth="yes"/>
      <point x="554" y="-225"/>
      <point x="529" y="-206"/>
      <point x="529" y="-180" type="qcurve" smooth="yes"/>
      <point x="529" y="0" type="line"/>
      <point x="489.0" y="13.0" name="inserted"/>
      <point x="419.0" y="52.5"/>
      <point x="389" y="79" type="qcurve"/>
    </contour>
  </outline>
</glyph>
<glyph name="Tbar" format="2">
  <advance width="1228"/>
  <unicode hex="0166"/>
  <outline>
    <contour>
      <point x="489" y="565" type="line"/>
      <point x="489" y="972" type="line"/>
      <point x="308" y="972" type="line"/>
      <point x="308" y="700" type="line" smooth="yes"/>
      <point x="308" y="666"/>
      <point x="253" y="637"/>
      <point x="196" y="637" type="qcurve" smooth="yes"/>
      <point x="140" y="637"/>
      <point x="98" y="666"/>
      <point x="98" y="700" type="qcurve" smooth="yes"/>
      <point x="98" y="1122" type="line" smooth="yes"/>
      <point x="98" y="1157"/>
      <point x="128" y="1187"/>
      <point x="163" y="1187" type="qcurve" smooth="yes"/>
      <point x="1065" y="1187" type="line" smooth="yes"/>
      <point x="1100" y="1187"/>
      <point x="1130" y="1157"/>
      <point x="1130" y="1122" type="qcurve" smooth="yes"/>
      <point x="1130" y="700" type="line" smooth="yes"/>
      <point x="1130" y="666"/>
      <point x="1075" y="637"/>
      <point x="1018" y="637" type="qcurve" smooth="yes"/>
      <point x="962" y="637"/>
      <point x="920" y="666"/>
      <point x="920" y="700" type="qcurve" smooth="yes"/>
      <point x="920" y="972" type="line"/>
      <point x="739" y="972" type="line"/>
      <point x="739" y="565" type="line"/>
      <point x="895" y="565" type="line" smooth="yes"/>
      <point x="912" y="565"/>
      <point x="936" y="557"/>
      <point x="943.5" y="545.5" type="qcurve" smooth="yes" name="inserted"/>
      <point x="951" y="534"/>
      <point x="958" y="494"/>
      <point x="958" y="462" type="qcurve" smooth="yes"/>
      <point x="958" y="430"/>
      <point x="951" y="390"/>
      <point x="943.5" y="379.0" type="qcurve" smooth="yes" name="inserted"/>
      <point x="936" y="368"/>
      <point x="912" y="360"/>
      <point x="895" y="360" type="qcurve" smooth="yes"/>
      <point x="739" y="360" type="line"/>
      <point x="739" y="205" type="line"/>
      <point x="955" y="205" type="line" smooth="yes"/>
      <point x="972" y="205"/>
      <point x="996" y="197"/>
      <point x="1003.5" y="185.5" type="qcurve" smooth="yes" name="inserted"/>
      <point x="1011" y="174"/>
      <point x="1018" y="134"/>
      <point x="1018" y="102" type="qcurve" smooth="yes"/>
      <point x="1018" y="70"/>
      <point x="1011" y="30"/>
      <point x="1003.5" y="19.0" type="qcurve" smooth="yes" name="inserted"/>
      <point x="996" y="8"/>
      <point x="972" y="0"/>
      <point x="955" y="0" type="qcurve" smooth="yes"/>
      <point x="273" y="0" type="line" smooth="yes"/>
      <point x="256" y="0"/>
      <point x="232" y="8"/>
      <point x="224.5" y="19.0" type="qcurve" smooth="yes" name="inserted"/>
      <point x="217" y="30"/>
      <point x="210" y="70"/>
      <point x="210" y="102" type="qcurve" smooth="yes"/>
      <point x="210" y="134"/>
      <point x="217" y="174"/>
      <point x="224.5" y="185.5" type="qcurve" smooth="yes" name="inserted"/>
      <point x="232" y="197"/>
      <point x="256" y="205"/>
      <point x="273" y="205" type="qcurve" smooth="yes"/>
      <point x="489" y="205" type="line"/>
      <point x="489" y="360" type="line"/>
      <point x="333" y="360" type="line" smooth="yes"/>
      <point x="316" y="360"/>
      <point x="292" y="368"/>
      <point x="284.5" y="379.0" type="qcurve" smooth="yes" name="inserted"/>
      <point x="277" y="390"/>
      <point x="270" y="430"/>
      <point x="270" y="462" type="qcurve" smooth="yes"/>
      <point x="270" y="494"/>
      <point x="277" y="534"/>
      <point x="284.5" y="545.5" type="qcurve" smooth="yes" name="inserted"/>
      <point x="292" y="557"/>
      <point x="316" y="565"/>
      <point x="333" y="565" type="qcurve" smooth="yes"/>
    </contour>
  </outline>
</glyph>
<glyph name="ring" format="2">
  <advance width="1228"/>
  <unicode hex="02DA"/>
  <outline>
    <contour>
      <point x="355" y="1295" type="qcurve" smooth="yes"/>
      <point x="355" y="1349"/>
      <point x="396" y="1445"/>
      <point x="431.5" y="1480.5" type="qcurve" smooth="yes" name="inserted"/>
      <point x="467" y="1516"/>
      <point x="563" y="1557"/>
      <point x="617" y="1557" type="qcurve" smooth="yes"/>
      <point x="671" y="1557"/>
      <point x="767" y="1516"/>
      <point x="802.5" y="1480.5" type="qcurve" smooth="yes" name="inserted"/>
      <point x="838" y="1445"/>
      <point x="879" y="1349"/>
      <point x="879" y="1295" type="qcurve" smooth="yes"/>
      <point x="879" y="1241"/>
      <point x="838" y="1145"/>
      <point x="802.5" y="1109.5" type="qcurve" smooth="yes" name="inserted"/>
      <point x="767" y="1074"/>
      <point x="671" y="1033"/>
      <point x="617" y="1033" type="qcurve" smooth="yes"/>
      <point x="563" y="1033"/>
      <point x="467" y="1074"/>
      <point x="431.5" y="1109.5" type="qcurve" smooth="yes" name="inserted"/>
      <point x="396" y="1145"/>
      <point x="355" y="1241"/>
    </contour>
    <contour>
      <point x="514" y="1295" type="qcurve" smooth="yes"/>
      <point x="514" y="1274"/>
      <point x="530" y="1236"/>
      <point x="544.0" y="1222.0" type="qcurve" smooth="yes" name="inserted"/>
      <point x="558" y="1208"/>
      <point x="596" y="1192"/>
      <point x="617" y="1192" type="qcurve" smooth="yes"/>
      <point x="638" y="1192"/>
      <point x="676" y="1208"/>
      <point x="690.0" y="1222.0" type="qcurve" smooth="yes" name="inserted"/>
      <point x="704" y="1236"/>
      <point x="720" y="1274"/>
      <point x="720" y="1295" type="qcurve" smooth="yes"/>
      <point x="720" y="1316"/>
      <point x="704" y="1354"/>
      <point x="690.0" y="1368.0" type="qcurve" smooth="yes" name="inserted"/>
      <point x="676" y="1382"/>
      <point x="638" y="1398"/>
      <point x="617" y="1398" type="qcurve" smooth="yes"/>
      <point x="596" y="1398"/>
      <point x="558" y="1382"/>
      <point x="544.0" y="1368.0" type="qcurve" smooth="yes" name="inserted"/>
      <point x="530" y="1354"/>
      <point x="514" y="1316"/>
    </contour>
  </outline>
</glyph>
<glyph name="ogonek" format="2">
  <advance width="1228"/>
  <unicode hex="02DB"/>
  <outline>
    <contour>
      <point x="785" y="28" type="line"/>
      <point x="696" y="-44"/>
      <point x="592" y="-174"/>
      <point x="592" y="-231" type="qcurve" smooth="yes"/>
      <point x="592" y="-266"/>
      <point x="637" y="-298"/>
      <point x="680" y="-298" type="qcurve" smooth="yes"/>
      <point x="709" y="-298"/>
      <point x="768" y="-290"/>
      <point x="800" y="-285" type="qcurve" smooth="yes"/>
      <point x="820" y="-282"/>
      <point x="845" y="-318"/>
      <point x="848" y="-353" type="qcurve" smooth="yes"/>
      <point x="851.0" y="-388.5" name="inserted"/>
      <point x="832.5" y="-431.0"/>
      <point x="811" y="-438" type="qcurve" smooth="yes"/>
      <point x="760" y="-454"/>
      <point x="650" y="-472"/>
      <point x="595" y="-472" type="qcurve" smooth="yes"/>
      <point x="477" y="-472"/>
      <point x="349" y="-369"/>
      <point x="349" y="-269" type="qcurve" smooth="yes"/>
      <point x="349" y="-220"/>
      <point x="385" y="-137"/>
      <point x="416.0" y="-101.0" type="qcurve" smooth="yes" name="inserted"/>
      <point x="447" y="-65"/>
      <point x="530" y="-2"/>
      <point x="578" y="28" type="qcurve"/>
    </contour>
  </outline>
</glyph>
<glyph name="quoteright" format="2">
  <advance width="1228"/>
  <unicode hex="2019"/>
  <outline>
    <contour>
      <point x="600" y="672" type="line" smooth="yes"/>
      <point x="583" y="639"/>
      <point x="536" y="611"/>
      <point x="494" y="611" type="qcurve" smooth="yes"/>
      <point x="444" y="611"/>
      <point x="406" y="650"/>
      <point x="414" y="697" type="qcurve" smooth="yes"/>
      <point x="498" y="1169" type="line" smooth="yes"/>
      <point x="502.0" y="1189.0" name="inserted"/>
      <point x="528.0" y="1209.0"/>
      <point x="550" y="1209" type="qcurve" smooth="yes"/>
      <point x="809" y="1209" type="line" smooth="yes"/>
      <point x="834" y="1209"/>
      <point x="850" y="1172"/>
      <point x="837" y="1146" type="qcurve" smooth="yes"/>
    </contour>
  </outline>
</glyph>
<glyph name="quotesinglbase" format="2">
  <advance width="1228"/>
  <unicode hex="201A"/>
  <outline>
    <contour>
      <point x="600" y="-233" type="line" smooth="yes"/>
      <point x="583" y="-266"/>
      <point x="536" y="-294"/>
      <point x="494" y="-294" type="qcurve" smooth="yes"/>
      <point x="444" y="-294"/>
      <point x="406" y="-255"/>
      <point x="414" y="-208" type="qcurve" smooth="yes"/>
      <point x="498" y="264" type="line" smooth="yes"/>
      <point x="502.0" y="284.0" name="inserted"/>
      <point x="528.0" y="304.0"/>
      <point x="550" y="304" type="qcurve" smooth="yes"/>
      <point x="809" y="304" type="line" smooth="yes"/>
      <point x="834" y="304"/>
      <point x="850" y="267"/>
      <point x="837" y="241" type="qcurve" smooth="yes"/>
    </contour>
  </outline>
</glyph>
<glyph name="quotedblleft" format="2">
  <advance width="1228"/>
  <unicode hex="201C"/>
  <outline>
    <contour>
      <point x="373" y="1186" type="line" smooth="yes"/>
      <point x="390" y="1219"/>
      <point x="437" y="1247"/>
      <point x="479" y="1247" type="qcurve" smooth="yes"/>
      <point x="529" y="1247"/>
      <point x="567" y="1208"/>
      <point x="559" y="1161" type="qcurve" smooth="yes"/>
      <point x="475" y="689" type="line" smooth="yes"/>
      <point x="471.0" y="669.0" name="inserted"/>
      <point x="445.0" y="649.0"/>
      <point x="423" y="649" type="qcurve" smooth="yes"/>
      <point x="164" y="649" type="line" smooth="yes"/>
      <point x="139" y="649"/>
      <point x="123" y="686"/>
      <point x="136" y="712" type="qcurve" smooth="yes"/>
    </contour>
    <contour>
      <point x="853" y="1186" type="line" smooth="yes"/>
      <point x="870" y="1219"/>
      <point x="917" y="1247"/>
      <point x="959" y="1247" type="qcurve" smooth="yes"/>
      <point x="1009" y="1247"/>
      <point x="1047" y="1208"/>
      <point x="1039" y="1161" type="qcurve" smooth="yes"/>
      <point x="955" y="689" type="line" smooth="yes"/>
      <point x="951.0" y="669.0" name="inserted"/>
      <point x="925.0" y="649.0"/>
      <point x="903" y="649" type="qcurve" smooth="yes"/>
      <point x="644" y="649" type="line" smooth="yes"/>
      <point x="619" y="649"/>
      <point x="603" y="686"/>
      <point x="616" y="712" type="qcurve" smooth="yes"/>
    </contour>
  </outline>
</glyph>
<glyph name="dagger" format="2">
  <advance width="1228"/>
  <unicode hex="2020"/>
  <outline>
    <contour>
      <point x="313" y="699" type="line" smooth="yes"/>
      <point x="296" y="699"/>
      <point x="272" y="707"/>
      <point x="264.5" y="719.0" type="qcurve" smooth="yes" name="inserted"/>
      <point x="257" y="731"/>
      <point x="250" y="775"/>
      <point x="250" y="811" type="qcurve" smooth="yes"/>
      <point x="250" y="847"/>
      <point x="257" y="891"/>
      <point x="264.5" y="903.0" type="qcurve" smooth="yes" name="inserted"/>
      <point x="272" y="915"/>
      <point x="296" y="924"/>
      <point x="313" y="924" type="qcurve" smooth="yes"/>
      <point x="501" y="924" type="line"/>
      <point x="501" y="1146" type="line" smooth="yes"/>
      <point x="501" y="1163"/>
      <point x="510" y="1187"/>
      <point x="522.0" y="1194.5" type="qcurve" smooth="yes" name="inserted"/>
      <point x="534" y="1202"/>
      <point x="578" y="1209"/>
      <point x="614" y="1209" type="qcurve" smooth="yes"/>
      <point x="650" y="1209"/>
      <point x="694" y="1202"/>
      <point x="706.0" y="1194.5" type="qcurve" smooth="yes" name="inserted"/>
      <point x="718" y="1187"/>
      <point x="726" y="1163"/>
      <point x="726" y="1146" type="qcurve" smooth="yes"/>
      <point x="726" y="924" type="line"/>
      <point x="915" y="924" type="line" smooth="yes"/>
      <point x="932" y="924"/>
      <point x="956" y="915"/>
      <point x="963.5" y="903.0" type="qcurve" smooth="yes" name="inserted"/>
      <point x="971" y="891"/>
      <point x="978" y="847"/>
      <point x="978" y="811" type="qcurve" smooth="yes"/>
      <point x="978" y="775"/>
      <point x="971" y="731"/>
      <point x="963.5" y="719.0" type="qcurve" smooth="yes" name="inserted"/>
      <point x="956" y="707"/>
      <point x="932" y="699"/>
      <point x="915" y="699" type="qcurve" smooth="yes"/>
      <point x="726" y="699" type="line"/>
      <point x="726" y="311" type="line" smooth="yes"/>
      <point x="726" y="294"/>
      <point x="718" y="270"/>
      <point x="706.0" y="262.5" type="qcurve" smooth="yes" name="inserted"/>
      <point x="694" y="255"/>
      <point x="650" y="248"/>
      <point x="614" y="248" type="qcurve" smooth="yes"/>
      <point x="578" y="248"/>
      <point x="534" y="255"/>
      <point x="522.0" y="262.5" type="qcurve" smooth="yes" name="inserted"/>
      <point x="510" y="270"/>
      <point x="501" y="294"/>
      <point x="501" y="311" type="qcurve" smooth="yes"/>
      <point x="501" y="699" type="line"/>
    </contour>
  </outline>
</glyph>
<glyph name="guilsinglleft" format="2">
  <advance width="1228"/>
  <unicode hex="2039"/>
  <outline>
    <contour>
      <point x="602" y="920" type="line" smooth="yes"/>
      <point x="610" y="933"/>
      <point x="639" y="945"/>
      <point x="657.0" y="945.5" type="qcurve" smooth="yes" name="inserted"/>
      <point x="675" y="946"/>
      <point x="716" y="937"/>
      <point x="735" y="928" type="qcurve" smooth="yes"/>
      <point x="755" y="919"/>
      <point x="790" y="894"/>
      <point x="801.5" y="879.5" type="qcurve" smooth="yes" name="inserted"/>
      <point x="813" y="865"/>
      <point x="819" y="835"/>
      <point x="810" y="820" type="qcurve" smooth="yes"/>
      <point x="646" y="551" type="line"/>
      <point x="810" y="281" type="line" smooth="yes"/>
      <point x="819" y="266"/>
      <point x="813" y="236"/>
      <point x="801.5" y="221.5" type="qcurve" smooth="yes" name="inserted"/>
      <point x="790" y="207"/>
      <point x="755" y="182"/>
      <point x="735" y="173" type="qcurve" smooth="yes"/>
      <point x="716" y="164"/>
      <point x="675" y="155"/>
      <point x="657.0" y="155.5" type="qcurve" smooth="yes" name="inserted"/>
      <point x="639" y="156"/>
      <point x="610" y="168"/>
      <point x="602" y="181" type="qcurve" smooth="yes"/>
      <point x="393" y="525" type="line" smooth="yes"/>
      <point x="385.0" y="537.5" name="inserted"/>
      <point x="385.0" y="563.0"/>
      <point x="393" y="576" type="qcurve" smooth="yes"/>
    </contour>
  </outline>
</glyph>
<glyph name="trademark" format="2">
  <advance width="1228"/>
  <unicode hex="2122"/>
  <outline>
    <contour>
      <point x="785" y="813" type="line" smooth="yes"/>
      <point x="783" y="778"/>
      <point x="748" y="748"/>
      <point x="702" y="748" type="qcurve" smooth="yes"/>
      <point x="656" y="748"/>
      <point x="627" y="778"/>
      <point x="629" y="813" type="qcurve" smooth="yes"/>
      <point x="659" y="1257" type="line" smooth="yes"/>
      <point x="661" y="1292"/>
      <point x="698" y="1322"/>
      <point x="744" y="1322" type="qcurve" smooth="yes"/>
      <point x="778" y="1322"/>
      <point x="810" y="1308"/>
      <point x="818" y="1293" type="qcurve" smooth="yes"/>
      <point x="958" y="1037" type="line"/>
      <point x="1098" y="1293" type="line" smooth="yes"/>
      <point x="1106" y="1308"/>
      <point x="1138" y="1322"/>
      <point x="1172" y="1322" type="qcurve" smooth="yes"/>
      <point x="1218" y="1322"/>
      <point x="1255" y="1292"/>
      <point x="1257" y="1257" type="qcurve" smooth="yes"/>
      <point x="1287" y="813" type="line" smooth="yes"/>
      <point x="1289" y="778"/>
      <point x="1260" y="748"/>
      <point x="1214" y="748" type="qcurve" smooth="yes"/>
      <point x="1168" y="748"/>
      <point x="1133" y="778"/>
      <point x="1131" y="813" type="qcurve" smooth="yes"/>
      <point x="1121" y="1030" type="line"/>
      <point x="1030" y="865" type="line" smooth="yes"/>
      <point x="1017" y="842"/>
      <point x="978" y="818"/>
      <point x="958" y="818" type="qcurve" smooth="yes"/>
      <point x="938" y="818"/>
      <point x="899" y="842"/>
      <point x="886" y="865" type="qcurve" smooth="yes"/>
      <point x="794" y="1030" type="line"/>
    </contour>
    <contour>
      <point x="113" y="1157" type="line" smooth="yes"/>
      <point x="96" y="1157"/>
      <point x="72" y="1163"/>
      <point x="64.5" y="1171.0" type="qcurve" smooth="yes" name="inserted"/>
      <point x="57" y="1179"/>
      <point x="50" y="1210"/>
      <point x="50" y="1234" type="qcurve" smooth="yes"/>
      <point x="50" y="1258"/>
      <point x="57" y="1289"/>
      <point x="64.5" y="1297.5" type="qcurve" smooth="yes" name="inserted"/>
      <point x="72" y="1306"/>
      <point x="96" y="1312"/>
      <point x="113" y="1312" type="qcurve" smooth="yes"/>
      <point x="515" y="1312" type="line" smooth="yes"/>
      <point x="532" y="1312"/>
      <point x="556" y="1306"/>
      <point x="563.5" y="1297.5" type="qcurve" smooth="yes" name="inserted"/>
      <point x="571" y="1289"/>
      <point x="578" y="1258"/>
      <point x="578" y="1234" type="qcurve" smooth="yes"/>
      <point x="578" y="1210"/>
      <point x="571" y="1179"/>
      <point x="563.5" y="1171.0" type="qcurve" smooth="yes" name="inserted"/>
      <point x="556" y="1163"/>
      <point x="532" y="1157"/>
      <point x="515" y="1157" type="qcurve" smooth="yes"/>
      <point x="394" y="1157" type="line"/>
      <point x="394" y="813" type="line" smooth="yes"/>
      <point x="394" y="796"/>
      <point x="388" y="771"/>
      <point x="379.0" y="763.0" type="qcurve" smooth="yes" name="inserted"/>
      <point x="370" y="755"/>
      <point x="339" y="748"/>
      <point x="314" y="748" type="qcurve" smooth="yes"/>
      <point x="289" y="748"/>
      <point x="258" y="755"/>
      <point x="249.0" y="763.0" type="qcurve" smooth="yes" name="inserted"/>
      <point x="240" y="771"/>
      <point x="234" y="796"/>
      <point x="234" y="813" type="qcurve" smooth="yes"/>
      <point x="234" y="1157" type="line"/>
    </contour>
  </outline>
</glyph>
<glyph name="lessequal" format="2">
  <advance width="1228"/>
  <unicode hex="2264"/>
  <outline>
    <contour>
      <point x="995" y="225" type="line" smooth="yes"/>
      <point x="1012" y="225"/>
      <point x="1036" y="216"/>
      <point x="1043.5" y="204.0" type="qcurve" smooth="yes" name="inserted"/>
      <point x="1051" y="192"/>
      <point x="1058" y="148"/>
      <point x="1058" y="112" type="qcurve" smooth="yes"/>
      <point x="1058" y="76"/>
      <point x="1051" y="32"/>
      <point x="1043.5" y="20.0" type="qcurve" smooth="yes" name="inserted"/>
      <point x="1036" y="8"/>
      <point x="1012" y="0"/>
      <point x="995" y="0" type="qcurve" smooth="yes"/>
      <point x="233" y="0" type="line" smooth="yes"/>
      <point x="216" y="0"/>
      <point x="192" y="8"/>
      <point x="184.5" y="20.0" type="qcurve" smooth="yes" name="inserted"/>
      <point x="177" y="32"/>
      <point x="170" y="76"/>
      <point x="170" y="112" type="qcurve" smooth="yes"/>
      <point x="170" y="148"/>
      <point x="177" y="192"/>
      <point x="184.5" y="204.0" type="qcurve" smooth="yes" name="inserted"/>
      <point x="192" y="216"/>
      <point x="216" y="225"/>
      <point x="233" y="225" type="qcurve" smooth="yes"/>
    </contour>
    <contour>
      <point x="170" y="745" type="qcurve" smooth="yes"/>
      <point x="170" y="788"/>
      <point x="191" y="828"/>
      <point x="216" y="839" type="qcurve" smooth="yes"/>
      <point x="945" y="1139" type="line" smooth="yes"/>
      <point x="977" y="1153"/>
      <point x="1024" y="1115"/>
      <point x="1047" y="1051" type="qcurve" smooth="yes"/>
      <point x="1059" y="1019"/>
      <point x="1066" y="977"/>
      <point x="1062.5" y="962.5" type="qcurve" smooth="yes" name="inserted"/>
      <point x="1059" y="948"/>
      <point x="1039" y="931"/>
      <point x="1023" y="925" type="qcurve" smooth="yes"/>
      <point x="531" y="745" type="line"/>
      <point x="1023" y="565" type="line" smooth="yes"/>
      <point x="1039" y="559"/>
      <point x="1059" y="542"/>
      <point x="1062.5" y="527.5" type="qcurve" smooth="yes" name="inserted"/>
      <point x="1066" y="513"/>
      <point x="1059" y="470"/>
      <point x="1047" y="439" type="qcurve" smooth="yes"/>
      <point x="1024" y="375"/>
      <point x="977" y="337"/>
      <point x="945" y="351" type="qcurve" smooth="yes"/>
      <point x="216" y="651" type="line" smooth="yes"/>
      <point x="191" y="662"/>
      <point x="170" y="702"/>
    </contour>
  </outline>
</glyph>
<glyph name="commaaccent" format="2">
  <advance width="1228"/>
  <unicode hex="F6C3"/>
  <outline>
    <contour>
      <point x="593" y="-502" type="line" smooth="yes"/>
      <point x="581.0" y="-523.5" name="inserted"/>
      <point x="535.5" y="-545.0"/>
      <point x="502" y="-545" type="qcurve" smooth="yes"/>
      <point x="468" y="-545"/>
      <point x="431" y="-518"/>
      <point x="436" y="-486" type="qcurve" smooth="yes"/>
      <point x="489" y="-173" type="line" smooth="yes"/>
      <point x="491.5" y="-159.5" name="inserted"/>
      <point x="509.5" y="-146.0"/>
      <point x="525" y="-146" type="qcurve" smooth="yes"/>
      <point x="747" y="-146" type="line" smooth="yes"/>
      <point x="764" y="-146"/>
      <point x="777" y="-172"/>
      <point x="767" y="-189" type="qcurve" smooth="yes"/>
    </contour>
  </outline>
</glyph>
<glyph name="emdash.alt1" format="2">
  <advance width="1228"/>
  <outline>
    <contour>
      <point x="1595" y="695" type="line" smooth="yes"/>
      <point x="1612" y="695"/>
      <point x="1636" y="686"/>
      <point x="1643.5" y="674.0" type="qcurve" smooth="yes" name="inserted"/>
      <point x="1651" y="662"/>
      <point x="1658" y="618"/>
      <point x="1658" y="582" type="qcurve" smooth="yes"/>
      <point x="1658" y="546"/>
      <point x="1651" y="502"/>
      <point x="1643.5" y="490.0" type="qcurve" smooth="yes" name="inserted"/>
      <point x="1636" y="478"/>
      <point x="1612" y="470"/>
      <point x="1595" y="470" type="qcurve" smooth="yes"/>
      <point x="-367" y="470" type="line" smooth="yes"/>
      <point x="-384" y="470"/>
      <point x="-408" y="478"/>
      <point x="-415.5" y="490.0" type="qcurve" smooth="yes" name="inserted"/>
      <point x="-423" y="502"/>
      <point x="-430" y="546"/>
      <point x="-430" y="582" type="qcurve" smooth="yes"/>
      <point x="-430" y="618"/>
      <point x="-423" y="662"/>
      <point x="-415.5" y="674.0" type="qcurve" smooth="yes" name="inserted"/>
      <point x="-408" y="686"/>
      <point x="-384" y="695"/>
      <point x="-367" y="695" type="qcurve" smooth="yes"/>
    </contour>
  </outline>
</glyph>
<glyph name="emdash.alt4" format="2">
  <advance width="1228"/>
  <outline>
    <contour>
      <point x="1395" y="695" type="line" smooth="yes"/>
      <point x="1412" y="695"/>
      <point x="1436" y="686"/>
      <point x="1443.5" y="674.0" type="qcurve" smooth="yes" name="inserted"/>
      <point x="1451" y="662"/>
      <point x="1458" y="618"/>
      <point x="1458" y="582" type="qcurve" smooth="yes"/>
      <point x="1458" y="546"/>
      <point x="1451" y="502"/>
      <point x="1443.5" y="490.0" type="qcurve" smooth="yes" name="inserted"/>
      <point x="1436" y="478"/>
      <point x="1412" y="470"/>
      <point x="1395" y="470" type="qcurve" smooth="yes"/>
      <point x="-167" y="470" type="line" smooth="yes"/>
      <point x="-184" y="470"/>
      <point x="-208" y="478"/>
      <point x="-215.5" y="490.0" type="qcurve" smooth="yes" name="inserted"/>
      <point x="-223" y="502"/>
      <point x="-230" y="546"/>
      <point x="-230" y="582" type="qcurve" smooth="yes"/>
      <point x="-230" y="618"/>
      <point x="-223" y="662"/>
      <point x="-215.5" y="674.0" type="qcurve" smooth="yes" name="inserted"/>
      <point x="-208" y="686"/>
      <point x="-184" y="695"/>
      <point x="-167" y="695" type="qcurve" smooth="yes"/>
    </contour>
  </outline>
</glyph>
<glyph name="hyphen.alt" format="2">
  <advance width="1228"/>
  <outline>
    <contour>
      <point x="905" y="719" type="line" smooth="yes"/>
      <point x="922" y="719"/>
      <point x="946" y="707"/>
      <point x="953.5" y="692.0" type="qcurve" smooth="yes" name="inserted"/>
      <point x="961" y="677"/>
      <point x="968" y="625"/>
      <point x="968" y="586" type="qcurve" smooth="yes"/>
      <point x="968" y="547"/>
      <point x="961" y="496"/>
      <point x="953.5" y="481.0" type="qcurve" smooth="yes" name="inserted"/>
      <point x="946" y="466"/>
      <point x="922" y="454"/>
      <point x="905" y="454" type="qcurve" smooth="yes"/>
      <point x="323" y="454" type="line" smooth="yes"/>
      <point x="306" y="454"/>
      <point x="282" y="466"/>
      <point x="274.5" y="481.0" type="qcurve" smooth="yes" name="inserted"/>
      <point x="267" y="496"/>
      <point x="260" y="547"/>
      <point x="260" y="586" type="qcurve" smooth="yes"/>
      <point x="260" y="625"/>
      <point x="267" y="677"/>
      <point x="274.5" y="692.0" type="qcurve" smooth="yes" name="inserted"/>
      <point x="282" y="707"/>
      <point x="306" y="719"/>
      <point x="323" y="719" type="qcurve" smooth="yes"/>
    </contour>
  </outline>
</glyph>
